<?xml version="1.0" encoding="utf-8"?>
<!-- Generator: Adobe Illustrator 22.0.1, SVG Export Plug-In . SVG Version: 6.00 Build 0)  -->
<svg version="1.1" xmlns="http://www.w3.org/2000/svg" xmlns:xlink="http://www.w3.org/1999/xlink" x="0px" y="0px"
	 viewBox="0 0 800 800" style="enable-background:new 0 0 800 800;" xml:space="preserve">
<style type="text/css">
	.st0{fill:#1A1A1A;}
	.st1{fill:#2A9978;}
	.st2{fill:#F7931A;}
	.st3{fill:#FFFFFF;}
	.st4{fill:#343434;}
	.st5{fill:#8C8C8C;}
	.st6{fill:#3C3C3B;}
	.st7{fill:#141414;}
	.st8{fill:#393939;}
	.st9{fill:#345D9D;}
	.st10{fill:#23292F;}
	.st11{fill:#666666;}
	.st12{fill:#A4A4A4;}
	.st13{fill:#3C3C3C;}
	.st14{fill:#909090;}
	.st15{display:none;}
	.st16{display:inline;}
	.st17{fill:#282828;}
	.st18{display:none;fill:#585858;}
	.st19{display:inline;fill:#50AF95;}
	.st20{display:inline;fill:#FFFFFF;}
	.st21{display:none;fill:#EBA63F;}
	.st22{fill:#585858;}
	.st23{fill:#CCCCCC;}
</style>
<g id="Layer_1">
	<rect x="-1486.9" y="-1743.6" class="st0" width="1366" height="768"/>
	
		<text transform="matrix(1 0 0 1 -1480.1301 -1714.425)" style="fill:#2A9978;stroke:#2A9978;stroke-width:0.2458;stroke-miterlimit:10; font-family:'Roboto-Light'; font-size:29.4974px;">CRYPTO</text>
	
		<text transform="matrix(1 0 0 1 -1387.9026 -1689.5696)" style="fill:#2A9978;stroke:#2A9978;stroke-width:0.2458;stroke-miterlimit:10; font-family:'Roboto-Light'; font-size:29.4974px;">STATIC</text>
	
		<rect x="-1663.9" y="-1362.6" transform="matrix(6.123234e-17 -1 1 6.123234e-17 79.7857 -2639.5)" class="st1" width="768" height="6"/>
	<text transform="matrix(1 0 0 1 -1415.3424 -1619.2712)" class="st23" style="font-family:'Roboto-Regular'; font-size:18px;">ABOUT</text>
	<text transform="matrix(1 0 0 1 -1424.1886 -1563.9949)" class="st23" style="font-family:'Roboto-Regular'; font-size:18px;">EXPLORE</text>
	<text transform="matrix(1 0 0 1 -1420.4401 -1508.7185)" class="st23" style="font-family:'Roboto-Regular'; font-size:18px;">DONATE</text>
	<g id="Layer_x0020_1_3_">
		<g id="_1421344023328_1_">
			<path class="st2" d="M-1048.1-1621c-5.3,21.4-27,34.5-48.5,29.1c-21.4-5.3-34.5-27-29.1-48.5c5.3-21.4,27-34.5,48.5-29.1
				C-1055.8-1664.1-1042.7-1642.4-1048.1-1621L-1048.1-1621L-1048.1-1621z"/>
			<path class="st3" d="M-1069.2-1636.3c0.8-5.3-3.3-8.2-8.8-10.1l1.8-7.2l-4.4-1.1l-1.8,7c-1.2-0.3-2.3-0.6-3.5-0.8l1.8-7.1
				l-4.4-1.1l-1.8,7.2c-1-0.2-1.9-0.4-2.8-0.7l0,0l-6.1-1.5l-1.2,4.7c0,0,3.3,0.7,3.2,0.8c1.8,0.4,2.1,1.6,2,2.6l-2,8.2
				c0.1,0,0.3,0.1,0.5,0.1c-0.1,0-0.3-0.1-0.5-0.1l-2.9,11.5c-0.2,0.5-0.8,1.4-2,1c0,0.1-3.2-0.8-3.2-0.8l-2.2,5l5.7,1.4
				c1.1,0.3,2.1,0.5,3.1,0.8l-1.8,7.3l4.4,1.1l1.8-7.2c1.2,0.3,2.4,0.6,3.5,0.9l-1.8,7.2l4.4,1.1l1.8-7.3c7.5,1.4,13.1,0.8,15.5-5.9
				c1.9-5.5-0.1-8.6-4-10.6C-1072-1630.6-1069.8-1632.4-1069.2-1636.3L-1069.2-1636.3L-1069.2-1636.3z M-1079.2-1622.3
				c-1.4,5.5-10.5,2.5-13.5,1.8l2.4-9.7C-1087.4-1629.4-1077.8-1628-1079.2-1622.3L-1079.2-1622.3z M-1077.9-1636.4
				c-1.2,5-8.9,2.4-11.4,1.8l2.2-8.8C-1084.6-1642.7-1076.6-1641.6-1077.9-1636.4L-1077.9-1636.4z"/>
		</g>
	</g>
	<g>
		<g id="Layer_1-2_3_">
			<path d="M-1058.1-1499.6l-9.6,4.9l-46.5,23.7c-0.2-1.2-0.2-2.4-0.2-3.6c0-15.3,12.4-27.7,27.7-27.7c4.7,0,9.4,1.2,13.5,3.5
				l5.5-2.8l0.8-0.4c-15.1-11-36.3-7.6-47.3,7.5c-4.2,5.8-6.5,12.7-6.5,19.9c0,0.9,0,1.7,0.1,2.6c0.2,2.5-1.1,4.8-3.3,6l-2.9,1.5
				v6.9l8.6-4.4l0,0l2.8-1.4l2.7-1.4l0,0l49-25l5.5-2.8l11.4-5.8v-6.9L-1058.1-1499.6z"/>
			<path d="M-1046.9-1491.6l-63.2,32.2l-5.5,2.8l-11.3,5.8v6.9l11.3-5.7l9.6-4.9l46.6-23.7c0.2,1.2,0.2,2.4,0.2,3.6
				c0,15.3-12.4,27.7-27.7,27.7c-4.7,0-9.4-1.2-13.5-3.5l-0.3,0.2l-6,3c15.1,11,36.3,7.6,47.3-7.5c4.2-5.8,6.5-12.7,6.5-19.9
				c0-0.9,0-1.7-0.1-2.6c-0.2-2.5,1.1-4.8,3.3-6l2.9-1.5V-1491.6z"/>
		</g>
	</g>
	<g id="Layer_x0020_1_2_">
		<g id="_1421394342400_1_">
			<g>
				<polygon class="st4" points="-786.9,-1672.4 -787.4,-1670.5 -787.4,-1616.7 -786.9,-1616.1 -761.9,-1630.9 				"/>
				<polygon class="st5" points="-786.9,-1672.4 -811.9,-1630.9 -786.9,-1616.1 -786.9,-1642.3 				"/>
				<polygon class="st6" points="-786.9,-1611.4 -787.2,-1611 -787.2,-1591.8 -786.9,-1590.9 -761.9,-1626.2 				"/>
				<polygon class="st5" points="-786.9,-1590.9 -786.9,-1611.4 -811.9,-1626.2 				"/>
				<polygon class="st7" points="-786.9,-1616.1 -761.9,-1630.9 -786.9,-1642.3 				"/>
				<polygon class="st8" points="-811.9,-1630.9 -786.9,-1616.1 -786.9,-1642.3 				"/>
			</g>
		</g>
	</g>
	<circle class="st3" cx="-787.6" cy="-1474.3" r="36.8"/>
	<path class="st9" d="M-787.6-1515.6c-22.8,0-41.3,18.5-41.3,41.3c0,22.8,18.5,41.3,41.3,41.3c22.8,0,41.3-18.5,41.3-41.3l0,0l0,0
		c0.1-22.7-18.3-41.2-41.1-41.3c0,0,0,0,0,0H-787.6z M-786.9-1472.9l-4.3,14.5h23c0.6,0,1.2,0.5,1.2,1.1c0,0,0,0,0,0v0.4l-2,6.9
		c-0.2,0.7-0.8,1.1-1.5,1.1h-35.2l5.9-20.1l-6.6,2l1.5-4.6l6.6-2l8.3-28.2c0.2-0.7,0.8-1.1,1.5-1.1h8.9c0.6,0,1.2,0.5,1.2,1.1
		c0,0,0,0,0,0v0.4l-7,23.8l6.6-2l-1.4,4.8L-786.9-1472.9z"/>
	<g>
		<g id="Layer_1-2_2_">
			<path class="st10" d="M-460.6-1664.8h11.6l-24.1,23.8c-8.7,8.6-22.8,8.6-31.6,0l-24.1-23.8h11.6l18.3,18.1c5.5,5.5,14.4,5.5,20,0
				L-460.6-1664.8z"/>
			<path class="st10" d="M-517.3-1598.5h-11.6l24.2-24c8.7-8.6,22.8-8.6,31.6,0l24.2,24h-11.6l-18.4-18.2c-5.5-5.5-14.4-5.5-20,0
				L-517.3-1598.5z"/>
		</g>
	</g>
	<circle class="st11" cx="-1086.9" cy="-1318.6" r="40"/>
	<circle class="st11" cx="-1086.9" cy="-1156.6" r="40"/>
	<circle class="st11" cx="-786.9" cy="-1318.6" r="40"/>
	<circle class="st11" cx="-786.9" cy="-1156.6" r="40"/>
	<circle class="st11" cx="-488.9" cy="-1319.6" r="40"/>
	<circle class="st11" cx="-488.9" cy="-1157.6" r="40"/>
	<circle class="st11" cx="-488.9" cy="-1478.6" r="40"/>
</g>
<g id="Layer_2">
	<rect x="-1546.9" y="-804.6" class="st0" width="1366" height="2115"/>
	<text transform="matrix(1 0 0 1 -1379.5693 -514.7444)" class="st23" style="font-family:'Roboto-Bold'; font-size:199.6367px;">Currencies.</text>
	<text transform="matrix(1 0 0 1 -1178.6167 108.32)" class="st3" style="font-family:'Roboto-Bold'; font-size:199.6367px;">Bitcoin</text>
	<text transform="matrix(1 0 0 1 -1295.2495 715.32)" class="st3" style="font-family:'Roboto-Bold'; font-size:199.6367px;">Ethereum</text>
	<text transform="matrix(1 0 0 1 -1155.1724 1346.3201)" class="st3" style="font-family:'Roboto-Bold'; font-size:199.6367px;">Tether</text>
	<g id="LOGOS_not_active">
		<g id="Layer_x0020_1_10_">
			<g id="_1421344023328_5_">
				<path class="st12" d="M-753.9-58C-769,2.7-830.6,39.7-891.3,24.5c-60.7-15.1-97.7-76.6-82.5-137.4
					c15.1-60.7,76.6-97.7,137.4-82.5C-775.7-180.2-738.8-118.7-753.9-58L-753.9-58L-753.9-58z"/>
				<path class="st3" d="M-813.9-101.5c2.3-15.1-9.2-23.2-24.9-28.6l5.1-20.4l-12.4-3.1l-5,19.9c-3.3-0.8-6.6-1.6-10-2.3l5-20
					l-12.4-3.1l-5.1,20.4c-2.7-0.6-5.4-1.2-7.9-1.9l0-0.1l-17.2-4.3l-3.3,13.3c0,0,9.2,2.1,9,2.2c5,1.3,5.9,4.6,5.8,7.2L-893-99
					c0.3,0.1,0.8,0.2,1.3,0.4c-0.4-0.1-0.9-0.2-1.3-0.3l-8.1,32.6c-0.6,1.5-2.2,3.8-5.7,3c0.1,0.2-9-2.3-9-2.3l-6.2,14.2l16.2,4
					c3,0.8,6,1.5,8.9,2.3l-5.1,20.7l12.4,3.1l5.1-20.4c3.4,0.9,6.7,1.8,9.9,2.6l-5.1,20.3l12.4,3.1l5.1-20.6
					c21.2,4,37.2,2.4,43.9-16.8c5.4-15.4-0.3-24.4-11.4-30.2C-821.6-85.2-815.5-90.5-813.9-101.5L-813.9-101.5L-813.9-101.5z
					 M-842.3-61.7c-3.8,15.4-29.9,7.1-38.3,5l6.8-27.4C-865.3-82-838.3-77.8-842.3-61.7L-842.3-61.7z M-838.4-101.8
					c-3.5,14-25.2,6.9-32.2,5.2l6.2-24.8C-857.4-119.7-834.8-116.4-838.4-101.8L-838.4-101.8z"/>
			</g>
		</g>
		<g id="Layer_x0020_1_9_">
			<g id="_1421394342400_5_">
				<g>
					<polygon class="st4" points="-863.9,428.4 -865.4,433.6 -865.4,583.5 -863.9,585 -794.3,543.8 					"/>
					<polygon class="st5" points="-863.9,428.4 -933.5,543.8 -863.9,585 -863.9,512.2 					"/>
					<polygon class="st13" points="-863.9,598.1 -864.7,599.2 -864.7,652.6 -863.9,655.1 -794.3,557 					"/>
					<polygon class="st5" points="-863.9,655.1 -863.9,598.1 -933.5,557 					"/>
					<polygon class="st7" points="-863.9,585 -794.3,543.8 -863.9,512.2 					"/>
					<polygon class="st8" points="-933.5,543.8 -863.9,585 -863.9,512.2 					"/>
				</g>
			</g>
		</g>
		<g id="tether-logo_3_">
			<path class="st14" d="M-946.4,1021.8l-47.5,99.8c-0.4,0.8-0.2,1.7,0.4,2.3l128.3,123c0.8,0.7,2,0.7,2.7,0l128.3-123
				c0.6-0.6,0.8-1.5,0.4-2.3l-47.5-99.8c-0.3-0.7-1-1.1-1.8-1.1h-161.6C-945.4,1020.7-946.1,1021.1-946.4,1021.8
				C-946.4,1021.8-946.4,1021.8-946.4,1021.8z"/>
			<path class="st3" d="M-847.4,1131.8L-847.4,1131.8c-0.9,0.1-5.7,0.4-16.3,0.4c-8.4,0-14.4-0.3-16.5-0.4l0,0
				c-32.6-1.4-57-7.1-57-13.9c0-6.8,24.4-12.5,57-13.9v22.2c2.1,0.2,8.2,0.5,16.7,0.5c10.1,0,15.2-0.4,16.1-0.5V1104
				c32.6,1.5,56.9,7.1,56.9,13.9C-790.5,1124.7-814.8,1130.4-847.4,1131.8L-847.4,1131.8L-847.4,1131.8z M-847.4,1101.7v-19.9h45.4
				v-30.3h-123.7v30.3h45.4v19.9c-36.9,1.7-64.7,9-64.7,17.8c0,8.8,27.8,16.1,64.7,17.8v63.6h32.8v-63.7c36.8-1.7,64.6-9,64.6-17.8
				C-782.8,1110.7-810.5,1103.4-847.4,1101.7L-847.4,1101.7L-847.4,1101.7z M-847.4,1101.7"/>
		</g>
		<g class="st15">
			<g id="Layer_1-2_9_" class="st16">
				<path class="st17" d="M-364.7,327.3h20.9l-43.6,43.2c-15.8,15.6-41.4,15.6-57.2,0l-43.6-43.2h21L-434,360
					c10,9.9,26.2,9.9,36.2,0L-364.7,327.3z"/>
				<path class="st17" d="M-467.4,447.3h-21l43.9-43.4c15.8-15.6,41.4-15.6,57.2,0l43.9,43.4h-20.9l-33.4-33
					c-10-9.9-26.2-9.9-36.2,0L-467.4,447.3z"/>
			</g>
		</g>
		<g class="st15">
			<g id="Layer_1-2_10_" class="st16">
				<path d="M-365.3,609.5l-17.1,8.7l-82.5,42c-0.3-2.1-0.4-4.3-0.4-6.4c0-27.1,22.1-49.1,49.2-49.1c8.4,0,16.6,2.2,23.9,6.2l9.8-5
					l1.5-0.7c-26.8-19.5-64.3-13.5-83.8,13.3c-7.4,10.2-11.4,22.6-11.4,35.3c0,1.5,0.1,3.1,0.2,4.6c0.3,4.4-2,8.5-5.9,10.5l-5.2,2.6
					v12.3l15.2-7.7l0,0l4.9-2.5l4.8-2.5l0,0l86.9-44.3l9.8-5l20.2-10.3v-12.3L-365.3,609.5z"/>
				<path d="M-345.2,623.8l-112,57l-9.8,5l-20.1,10.2v12.2l20-10.2l17.1-8.7l82.5-42.1c0.3,2.1,0.4,4.3,0.4,6.5
					c0,27.1-22,49.1-49.2,49.1c-8.4,0-16.7-2.2-24-6.3l-0.6,0.3l-10.6,5.4c26.8,19.5,64.3,13.5,83.8-13.3
					c7.4-10.2,11.4-22.6,11.4-35.2c0-1.5-0.1-3.1-0.2-4.6c-0.3-4.4,2-8.5,5.9-10.5l5.2-2.6V623.8z"/>
			</g>
		</g>
		<path class="st18" d="M-1324.3,593.8c-33.1,0-60,26.9-60,60s26.9,60,60,60c33.1,0,60-26.9,60-60l0,0l0,0c0.1-33-26.6-59.9-59.7-60
			c0,0,0,0,0,0H-1324.3z M-1323.2,655.8l-6.2,21.1h33.4c0.9,0,1.7,0.7,1.7,1.6c0,0,0,0,0,0v0.6l-2.9,10c-0.3,1-1.2,1.6-2.2,1.6
			h-51.1l8.6-29.2l-9.6,2.9l2.2-6.7l9.6-2.9l12.1-41c0.3-1,1.2-1.6,2.2-1.6h12.9c0.9,0,1.7,0.7,1.7,1.6c0,0,0,0,0,0v0.6l-10.2,34.6
			l9.6-2.9l-2,7L-1323.2,655.8z"/>
	</g>
	<g id="LOGOS_active" class="st15">
		<g id="Layer_x0020_1_8_" class="st16">
			<g id="_1421344023328_4_">
				<path class="st2" d="M-828-141.2c-8,32.1-40.6,51.7-72.7,43.7c-32.1-8-51.7-40.6-43.7-72.7c8-32.1,40.6-51.7,72.7-43.7
					C-839.5-205.9-820-173.4-828-141.2L-828-141.2L-828-141.2z"/>
				<path class="st3" d="M-859.7-164.3c1.2-8-4.9-12.3-13.2-15.1l2.7-10.8l-6.6-1.6l-2.6,10.5c-1.7-0.4-3.5-0.8-5.3-1.2l2.6-10.6
					l-6.6-1.6l-2.7,10.8c-1.4-0.3-2.8-0.6-4.2-1l0,0l-9.1-2.3l-1.8,7c0,0,4.9,1.1,4.8,1.2c2.7,0.7,3.1,2.4,3.1,3.8l-3.1,12.3
					c0.2,0,0.4,0.1,0.7,0.2c-0.2-0.1-0.5-0.1-0.7-0.2l-4.3,17.3c-0.3,0.8-1.2,2-3,1.6c0.1,0.1-4.8-1.2-4.8-1.2l-3.3,7.5l8.6,2.1
					c1.6,0.4,3.2,0.8,4.7,1.2l-2.7,10.9l6.6,1.6l2.7-10.8c1.8,0.5,3.5,0.9,5.2,1.4l-2.7,10.8l6.6,1.6l2.7-10.9
					c11.2,2.1,19.7,1.3,23.2-8.9c2.9-8.2-0.1-12.9-6-16C-863.8-155.6-860.6-158.4-859.7-164.3L-859.7-164.3L-859.7-164.3z
					 M-874.8-143.2c-2,8.2-15.8,3.8-20.3,2.6l3.6-14.5C-887-153.9-872.6-151.7-874.8-143.2L-874.8-143.2z M-872.7-164.4
					c-1.9,7.4-13.3,3.7-17,2.7l3.3-13.1C-882.8-173.9-870.8-172.2-872.7-164.4L-872.7-164.4z"/>
			</g>
		</g>
		<g>
			<g id="Layer_1-2_8_" class="st16">
				<path d="M-365.2,553.5l-17.1,8.7l-82.5,42c-0.3-2.1-0.4-4.3-0.4-6.4c0-27.1,22.1-49.1,49.2-49.1c8.4,0,16.6,2.2,23.9,6.2l9.8-5
					l1.5-0.7c-26.8-19.5-64.3-13.5-83.8,13.3c-7.4,10.2-11.4,22.6-11.4,35.3c0,1.5,0.1,3.1,0.2,4.6c0.3,4.4-2,8.5-5.9,10.5l-5.2,2.6
					v12.3l15.2-7.7l0,0l4.9-2.5l4.8-2.5l0,0l86.9-44.3l9.8-5l20.2-10.3v-12.3L-365.2,553.5z"/>
				<path d="M-345.2,567.8l-112,57l-9.8,5L-487,640v12.2l20-10.2l17.1-8.7l82.5-42.1c0.3,2.1,0.4,4.3,0.4,6.5
					c0,27.1-22,49.1-49.2,49.1c-8.4,0-16.7-2.2-24-6.3l-0.6,0.3l-10.6,5.4c26.8,19.5,64.3,13.5,83.8-13.3
					c7.4-10.2,11.4-22.6,11.4-35.2c0-1.5-0.1-3.1-0.2-4.6c-0.3-4.4,2-8.5,5.9-10.5l5.2-2.6V567.8z"/>
			</g>
		</g>
		<g id="Layer_x0020_1_7_">
			<g id="_1421394342400_4_" class="st16">
				<g>
					<polygon class="st4" points="-867.8,271.3 -868.6,274 -868.6,353.3 -867.8,354.1 -831,332.4 					"/>
					<polygon class="st5" points="-867.8,271.3 -904.6,332.4 -867.8,354.1 -867.8,315.6 					"/>
					<polygon class="st6" points="-867.8,361.1 -868.3,361.7 -868.3,389.9 -867.8,391.3 -830.9,339.4 					"/>
					<polygon class="st5" points="-867.8,391.3 -867.8,361.1 -904.6,339.4 					"/>
					<polygon class="st7" points="-867.8,354.1 -831,332.4 -867.8,315.6 					"/>
					<polygon class="st8" points="-904.6,332.4 -867.8,354.1 -867.8,315.6 					"/>
				</g>
			</g>
		</g>
		<path class="st9" d="M-1324.2,537.8c-33.1,0-60,26.9-60,60s26.9,60,60,60c33.1,0,60-26.9,60-60l0,0l0,0c0.1-33-26.6-59.9-59.7-60
			c0,0,0,0,0,0H-1324.2z M-1323.2,599.8l-6.2,21.1h33.4c0.9,0,1.7,0.7,1.7,1.6c0,0,0,0,0,0v0.6l-2.9,10c-0.3,1-1.2,1.6-2.2,1.6
			h-51.1l8.6-29.2l-9.6,2.9l2.2-6.7l9.6-2.9l12.1-41c0.3-1,1.2-1.6,2.2-1.6h12.9c0.9,0,1.7,0.7,1.7,1.6c0,0,0,0,0,0v0.6L-1321,593
			l9.6-2.9l-2,7L-1323.2,599.8z"/>
		<g>
			<g id="Layer_1-2_7_" class="st16">
				<path class="st10" d="M-364.6,271.3h20.9l-43.6,43.2c-15.8,15.6-41.4,15.6-57.2,0l-43.6-43.2h21L-434,304
					c10,9.9,26.2,9.9,36.2,0L-364.6,271.3z"/>
				<path class="st10" d="M-467.4,391.3h-21l43.9-43.4c15.8-15.6,41.4-15.6,57.2,0l43.9,43.4h-20.9l-33.4-33
					c-10-9.9-26.2-9.9-36.2,0L-467.4,391.3z"/>
			</g>
		</g>
		<g id="tether-logo_2_">
			<path class="st19" d="M-909.2,538.4l-25.2,52.8c-0.2,0.4-0.1,0.9,0.2,1.2l67.9,65.1c0.4,0.4,1,0.4,1.4,0l67.9-65.1
				c0.3-0.3,0.4-0.8,0.2-1.2l-25.2-52.8c-0.2-0.4-0.5-0.6-0.9-0.6h-85.6C-908.7,537.8-909.1,538-909.2,538.4
				C-909.2,538.4-909.2,538.4-909.2,538.4z"/>
			<path class="st20" d="M-856.8,596.6L-856.8,596.6c-0.5,0-3,0.2-8.6,0.2c-4.5,0-7.6-0.1-8.8-0.2l0,0c-17.3-0.8-30.2-3.8-30.2-7.4
				c0-3.6,12.9-6.6,30.2-7.4v11.7c1.1,0.1,4.4,0.3,8.8,0.3c5.4,0,8.1-0.2,8.5-0.3v-11.7c17.2,0.8,30.1,3.8,30.1,7.4
				S-839.6,595.9-856.8,596.6L-856.8,596.6L-856.8,596.6z M-856.8,580.7v-10.5h24.1v-16h-65.5v16h24.1v10.5
				c-19.6,0.9-34.3,4.8-34.3,9.4s14.7,8.5,34.3,9.4v33.7h17.4v-33.7c19.5-0.9,34.2-4.8,34.2-9.4
				C-822.6,585.5-837.3,581.6-856.8,580.7L-856.8,580.7L-856.8,580.7z M-856.8,580.7"/>
		</g>
	</g>
</g>
<g id="Layer_3">
	<rect x="-34.9" y="-906.6" class="st0" width="1366" height="768"/>
	<g id="Layer_x0020_1_1_">
		<g id="_1421394342400_2_">
			<g>
				<polygon class="st4" points="649.2,-852.7 648.4,-850 648.4,-770.7 649.2,-769.9 686,-791.6 				"/>
				<polygon class="st5" points="649.2,-852.7 612.4,-791.6 649.2,-769.9 649.2,-808.4 				"/>
				<polygon class="st6" points="649.2,-762.9 648.7,-762.3 648.7,-734.1 649.2,-732.7 686.1,-784.6 				"/>
				<polygon class="st5" points="649.2,-732.7 649.2,-762.9 612.4,-784.6 				"/>
				<polygon class="st7" points="649.2,-769.9 686,-791.6 649.2,-808.4 				"/>
				<polygon class="st8" points="612.4,-791.6 649.2,-769.9 649.2,-808.4 				"/>
			</g>
		</g>
	</g>
	<text transform="matrix(1 0 0 1 479.2405 -636.6429)"><tspan x="0" y="0" class="st23" style="font-family:'Roboto-Regular'; font-size:48px;">Ethereum </tspan><tspan x="216.9" y="0" class="st23" style="font-family:'Roboto-Light'; font-size:48px;">(ETH)</tspan></text>
	<text transform="matrix(1 0 0 1 414.9866 -562.6429)"><tspan x="0" y="0" class="st23" style="font-family:'Roboto-Thin'; font-size:48px;">$209,85 USD</tspan><tspan x="269.9" y="0" style="font-family:'Roboto-Thin'; font-size:48px;"> </tspan><tspan x="281.4" y="0" style="fill:#D94040; font-family:'Roboto-Thin'; font-size:48px;">(−2,19%)</tspan></text>
</g>
<g id="LOGO-BTC">
	<rect x="0.1" y="0.4" class="st21" width="800" height="800"/>
	<g id="Layer_x0020_1_4_">
		<g id="_1421344023328_2_">
			<path class="st2" d="M642.5,460.5c-33.4,133.9-169,215.4-303,182c-133.9-33.4-215.4-169-182-303
				c33.4-133.9,169-215.5,302.9-182.1C594.4,190.9,675.9,326.5,642.5,460.5L642.5,460.5L642.5,460.5z"/>
			<path class="st3" d="M510.2,364.4c5-33.3-20.4-51.2-55-63.1l11.2-45.1l-27.4-6.8l-10.9,43.9c-7.2-1.8-14.6-3.5-22-5.2l11-44.2
				l-27.4-6.8l-11.2,45.1c-6-1.4-11.8-2.7-17.5-4.1l0-0.1l-37.8-9.4l-7.3,29.3c0,0,20.4,4.7,19.9,5c11.1,2.8,13.1,10.1,12.8,16
				L335.8,370c0.8,0.2,1.8,0.5,2.9,0.9c-0.9-0.2-1.9-0.5-2.9-0.7l-17.9,71.9c-1.4,3.4-4.8,8.4-12.6,6.5c0.3,0.4-19.9-5-19.9-5
				l-13.6,31.4l35.7,8.9c6.6,1.7,13.1,3.4,19.6,5l-11.4,45.6l27.4,6.8l11.2-45.1c7.5,2,14.8,3.9,21.9,5.7l-11.2,44.9l27.4,6.8
				l11.4-45.5c46.8,8.9,82,5.3,96.8-37c11.9-34.1-0.6-53.7-25.2-66.5C493.1,400.5,506.6,388.7,510.2,364.4L510.2,364.4L510.2,364.4z
				 M447.6,452.3c-8.5,34.1-65.8,15.7-84.4,11l15.1-60.4C396.8,407.6,456.4,416.7,447.6,452.3L447.6,452.3z M456,363.9
				c-7.7,31-55.5,15.2-71,11.4l13.7-54.8C414.2,324.4,464.1,331.6,456,363.9L456,363.9z"/>
		</g>
	</g>
	<g id="Layer_x0020_1_5_">
		<g id="_1421344023328_3_">
			<path class="st12" d="M642.5,460.5c-33.4,133.9-169,215.4-303,182c-133.9-33.4-215.4-169-182-303
				c33.4-133.9,169-215.5,302.9-182.1C594.4,190.9,675.9,326.5,642.5,460.5L642.5,460.5L642.5,460.5z"/>
			<path class="st3" d="M510.2,364.4c5-33.3-20.4-51.2-55-63.1l11.2-45.1l-27.4-6.8l-10.9,43.9c-7.2-1.8-14.6-3.5-22-5.2l11-44.2
				l-27.4-6.8l-11.2,45.1c-6-1.4-11.8-2.7-17.5-4.1l0-0.1l-37.8-9.4l-7.3,29.3c0,0,20.4,4.7,19.9,5c11.1,2.8,13.1,10.1,12.8,16
				L335.8,370c0.8,0.2,1.8,0.5,2.9,0.9c-0.9-0.2-1.9-0.5-2.9-0.7l-17.9,71.9c-1.4,3.4-4.8,8.4-12.6,6.5c0.3,0.4-19.9-5-19.9-5
				l-13.6,31.4l35.7,8.9c6.6,1.7,13.1,3.4,19.6,5l-11.4,45.6l27.4,6.8l11.2-45.1c7.5,2,14.8,3.9,21.9,5.7l-11.2,44.9l27.4,6.8
				l11.4-45.5c46.8,8.9,82,5.3,96.8-37c11.9-34.1-0.6-53.7-25.2-66.5C493.1,400.5,506.6,388.7,510.2,364.4L510.2,364.4L510.2,364.4z
				 M447.6,452.3c-8.5,34.1-65.8,15.7-84.4,11l15.1-60.4C396.8,407.6,456.4,416.7,447.6,452.3L447.6,452.3z M456,363.9
				c-7.7,31-55.5,15.2-71,11.4l13.7-54.8C414.2,324.4,464.1,331.6,456,363.9L456,363.9z"/>
		</g>
	</g>
	<g>
		<path class="st3" d="M317.9,673.1c5,6.3,7.5,13.5,7.5,21.8c0,12.1-4,21.6-12.1,28.4c-8.1,6.8-19.6,10.2-34.7,10.2h-65.8V592.1H277
			c14.4,0,25.5,3.1,33.4,9.4c7.9,6.3,11.8,15.2,11.8,26.8c0,8.5-2.3,15.6-6.8,21.3c-4.5,5.7-10.5,9.4-17.8,11.1
			C306.1,662.7,312.9,666.8,317.9,673.1z M247,649.9h22.4c11.9,0,17.8-5.1,17.8-15.2c0-10.1-6.1-15.2-18.2-15.2h-22V649.9z
			 M290.4,690.1c0-5.1-1.7-9-5-11.9c-3.3-2.9-8.1-4.3-14.2-4.3H247v31.8h24.4C284.1,705.7,290.4,700.5,290.4,690.1z"/>
		<path class="st3" d="M445,592.1v27.2h-38.4v114.2h-34.4V619.3h-38v-27.2H445z"/>
		<path class="st3" d="M568.7,604.9c11.8,9.5,19.4,22.3,22.9,38.4h-36.2c-2.7-6.5-6.8-11.7-12.3-15.4c-5.5-3.7-12.1-5.6-19.7-5.6
			c-10,0-18.1,3.7-24.2,11c-6.1,7.3-9.2,17.1-9.2,29.4c0,12.3,3.1,22,9.2,29.3c6.1,7.3,14.2,10.9,24.2,10.9c7.6,0,14.2-1.9,19.7-5.6
			c5.5-3.7,9.6-8.8,12.3-15.2h36.2c-3.5,16-11.1,28.8-22.9,38.3c-11.8,9.5-26.7,14.3-44.7,14.3c-13.7,0-25.8-3-36.2-9.1
			c-10.4-6.1-18.4-14.6-24.1-25.5c-5.7-10.9-8.5-23.4-8.5-37.4s2.8-26.5,8.5-37.4c5.7-10.9,13.7-19.4,24.1-25.5
			c10.4-6.1,22.5-9.1,36.2-9.1C542,590.7,556.9,595.4,568.7,604.9z"/>
	</g>
</g>
<g id="LOGO-ETH">
	<rect x="850.1" y="0.4" class="st15" width="800" height="800"/>
	<g id="Layer_x0020_1">
		<g id="_1421394342400">
			<g>
				<polygon class="st4" points="1250,150 1246.6,161.4 1246.6,492 1250,495.4 1403.4,404.6 				"/>
				<polygon class="st5" points="1250,150 1096.5,404.6 1250,495.4 1250,334.9 				"/>
				<polygon class="st6" points="1250,524.4 1248.1,526.7 1248.1,644.5 1250,650 1403.5,433.7 				"/>
				<polygon class="st5" points="1250,650 1250,524.4 1096.5,433.7 				"/>
				<polygon class="st7" points="1250,495.4 1403.4,404.6 1250,334.9 				"/>
				<polygon class="st8" points="1096.5,404.6 1250,495.4 1250,334.9 				"/>
			</g>
		</g>
	</g>
	<g>
		<path class="st3" d="M1111.4,619.3v29.6h47.8v25.8h-47.8v31.4h53.8v27.4h-88V592.1h88v27.2H1111.4z"/>
		<path class="st3" d="M1286.2,592.1v27.2h-38.4v114.2h-34.4V619.3h-38v-27.2H1286.2z"/>
		<path class="st3" d="M1422.8,592.1v141.4h-34.4v-59h-53.6v59h-34.2V592.1h34.2v54.8h53.6v-54.8H1422.8z"/>
	</g>
</g>
<g id="LOGO-LTC">
	<rect x="0.1" y="864.4" class="st15" width="800" height="800"/>
	<ellipse class="st3" cx="398.6" cy="1262.9" rx="219.5" ry="211.5"/>
	<path class="st9" d="M400,1011.2c-139.6,0-252.8,113.2-252.8,252.8s113.2,252.8,252.8,252.8s252.8-113.2,252.8-252.8l0,0l0,0
		c0.4-139.2-112.1-252.4-251.4-252.8c0,0,0,0,0,0H400z M404.3,1272.6l-26.3,88.8h140.8c3.9-0.1,7.2,2.9,7.3,6.8c0,0,0,0,0,0v2.3
		l-12.2,42.2c-1.1,4.1-4.9,6.9-9.2,6.7H289.2l36.1-123.1l-40.4,12.2l9.2-28.2l40.4-12.2l50.8-172.6c1.2-4.1,4.9-6.9,9.2-6.7H449
		c3.9-0.1,7.2,2.9,7.3,6.8c0,0,0,0,0,0v2.3l-42.9,145.7l40.4-12.2l-8.6,29.4L404.3,1272.6z"/>
	<path class="st22" d="M400,1011.2c-139.6,0-252.8,113.2-252.8,252.8s113.2,252.8,252.8,252.8s252.8-113.2,252.8-252.8l0,0l0,0
		c0.4-139.2-112.1-252.4-251.4-252.8c0,0,0,0,0,0H400z M404.3,1272.6l-26.3,88.8h140.8c3.9-0.1,7.2,2.9,7.3,6.8c0,0,0,0,0,0v2.3
		l-12.2,42.2c-1.1,4.1-4.9,6.9-9.2,6.7H289.2l36.1-123.1l-40.4,12.2l9.2-28.2l40.4-12.2l50.8-172.6c1.2-4.1,4.9-6.9,9.2-6.7H449
		c3.9-0.1,7.2,2.9,7.3,6.8c0,0,0,0,0,0v2.3l-42.9,145.7l40.4-12.2l-8.6,29.4L404.3,1272.6z"/>
	<g>
		<path class="st3" d="M264.5,1577.3h45.6v26.2h-79.8v-141.4h34.2V1577.3z"/>
		<path class="st3" d="M427.5,1462.1v27.2h-38.4v114.2h-34.4v-114.2h-38v-27.2H427.5z"/>
		<path class="st3" d="M551.2,1474.9c11.8,9.5,19.4,22.3,22.9,38.4h-36.2c-2.7-6.5-6.8-11.7-12.3-15.4c-5.5-3.7-12.1-5.6-19.7-5.6
			c-10,0-18.1,3.7-24.2,11c-6.1,7.3-9.2,17.1-9.2,29.4c0,12.3,3.1,22,9.2,29.3c6.1,7.3,14.2,10.9,24.2,10.9c7.6,0,14.2-1.9,19.7-5.6
			c5.5-3.7,9.6-8.8,12.3-15.2h36.2c-3.5,16-11.1,28.8-22.9,38.3c-11.8,9.5-26.7,14.3-44.7,14.3c-13.7,0-25.8-3-36.2-9.1
			c-10.4-6.1-18.4-14.6-24.1-25.5c-5.7-10.9-8.5-23.4-8.5-37.4s2.8-26.5,8.5-37.4c5.7-10.9,13.7-19.4,24.1-25.5
			c10.4-6.1,22.5-9.1,36.2-9.1C524.5,1460.7,539.4,1465.4,551.2,1474.9z"/>
	</g>
</g>
<g id="hamburger">
	<rect x="-270.2" y="-773.6" class="st23" width="49" height="3.9"/>
	<rect x="-270.2" y="-758.1" class="st23" width="49" height="3.9"/>
	<rect x="-270.2" y="-742.6" class="st23" width="49" height="3.9"/>
</g>
<g id="hamburger_copy">
	<rect x="1243.8" y="-875.6" class="st23" width="49" height="3.9"/>
	<rect x="1243.8" y="-860.1" class="st23" width="49" height="3.9"/>
	<rect x="1243.8" y="-844.6" class="st23" width="49" height="3.9"/>
</g>
</svg>
