<svg id="Layer_1" data-name="Layer 1" xmlns="http://www.w3.org/2000/svg" viewBox="0 0 767.91 768"><defs><style>.cls-1{fill:#eba63f;}.cls-2{fill:#fff;}</style></defs><title>bitcoin-btc-logo</title><g id="Layer_1-2" data-name="Layer_1"><g id="_1421344023328" data-name=" 1421344023328"><path class="cls-1" d="M1055.47,476.89C1004.18,682.61,795.82,807.8,590.08,756.5S259.23,496.85,310.54,291.15,570.16-39.8,775.84,11.49s330.91,259.68,279.62,465.41Z" transform="translate(-299.04 0)"/><path class="cls-2" d="M852.33,329.29c7.64-51.1-31.27-78.57-84.47-96.9l17.26-69.22L743,152.67l-16.8,67.4c-11.07-2.76-22.45-5.36-33.76-7.95l16.93-67.84-42.12-10.5L650,203c-9.17-2.09-18.17-4.15-26.91-6.32l.05-.22L565,181.93l-11.21,45s31.26,7.17,30.61,7.61c17.06,4.26,20.14,15.56,19.63,24.51l-19.66,78.86a34.92,34.92,0,0,1,4.38,1.4c-1.4-.34-2.9-.73-4.45-1.1L556.74,448.68c-2.08,5.19-7.37,13-19.3,10,.42.62-30.63-7.64-30.63-7.64l-20.92,48.24L540.72,513c10.21,2.55,20.2,5.23,30,7.75l-17.44,70,42.09,10.5L612.69,532c11.49,3.12,22.65,6,33.58,8.71l-17.21,69,42.14,10.5,17.43-69.88c71.86,13.59,125.88,8.11,148.62-56.88,18.33-52.33-.91-82.51-38.71-102.19,27.53-6.35,48.27-24.46,53.8-61.86Zm-96.28,135c-13,52.33-101.12,24-129.68,16.95l23.13-92.76c28.57,7.13,120.16,21.24,106.55,75.81Zm13-135.76c-11.88,47.6-85.2,23.42-109,17.49l21-84.13c23.79,5.93,100.39,17,88,66.64Z" transform="translate(-299.04 0)"/></g></g></svg>