<?xml version="1.0" encoding="utf-8"?>
<!-- Generator: Adobe Illustrator 22.0.1, SVG Export Plug-In . SVG Version: 6.00 Build 0)  -->
<svg version="1.1" xmlns="http://www.w3.org/2000/svg" xmlns:xlink="http://www.w3.org/1999/xlink" x="0px" y="0px"
	 viewBox="0 0 800 800" style="enable-background:new 0 0 800 800;" xml:space="preserve">
<style type="text/css">
	.st0{fill:#1A1A1A;}
	.st1{fill:#2A9978;}
	.st2{fill:#F7931A;}
	.st3{fill:#FFFFFF;}
	.st4{fill:#343434;}
	.st5{fill:#8C8C8C;}
	.st6{fill:#3C3C3B;}
	.st7{fill:#141414;}
	.st8{fill:#393939;}
	.st9{fill:#345D9D;}
	.st10{fill:#23292F;}
	.st11{fill:#666666;}
	.st12{fill:#A4A4A4;}
	.st13{fill:#3C3C3C;}
	.st14{fill:#909090;}
	.st15{display:none;}
	.st16{display:inline;}
	.st17{fill:#282828;}
	.st18{display:none;fill:#585858;}
	.st19{display:inline;fill:#50AF95;}
	.st20{display:inline;fill:#FFFFFF;}
	.st21{display:none;fill:#EBA63F;}
	.st22{fill:#585858;}
	.st23{fill:#CCCCCC;}
</style>
<g id="Layer_1">
	<rect x="-1486.9" y="-2607.6" class="st0" width="1366" height="768"/>
	
		<text transform="matrix(1 0 0 1 -1480.1301 -2578.425)" style="fill:#2A9978;stroke:#2A9978;stroke-width:0.2458;stroke-miterlimit:10; font-family:'Roboto-Light'; font-size:29.4974px;">CRYPTO</text>
	
		<text transform="matrix(1 0 0 1 -1387.9026 -2553.5696)" style="fill:#2A9978;stroke:#2A9978;stroke-width:0.2458;stroke-miterlimit:10; font-family:'Roboto-Light'; font-size:29.4974px;">STATIC</text>
	
		<rect x="-1663.9" y="-2226.6" transform="matrix(6.123234e-17 -1 1 6.123234e-17 943.7857 -3503.5)" class="st1" width="768" height="6"/>
	<text transform="matrix(1 0 0 1 -1415.3424 -2483.2712)" class="st23" style="font-family:'Roboto-Regular'; font-size:18px;">ABOUT</text>
	<text transform="matrix(1 0 0 1 -1424.1886 -2427.9949)" class="st23" style="font-family:'Roboto-Regular'; font-size:18px;">EXPLORE</text>
	<text transform="matrix(1 0 0 1 -1420.4401 -2372.7185)" class="st23" style="font-family:'Roboto-Regular'; font-size:18px;">DONATE</text>
	<g id="Layer_x0020_1_3_">
		<g id="_1421344023328_1_">
			<path class="st2" d="M-1048.1-2485c-5.3,21.4-27,34.5-48.5,29.1c-21.4-5.3-34.5-27-29.1-48.5c5.3-21.4,27-34.5,48.5-29.1
				C-1055.8-2528.1-1042.7-2506.4-1048.1-2485L-1048.1-2485L-1048.1-2485z"/>
			<path class="st3" d="M-1069.2-2500.3c0.8-5.3-3.3-8.2-8.8-10.1l1.8-7.2l-4.4-1.1l-1.8,7c-1.2-0.3-2.3-0.6-3.5-0.8l1.8-7.1
				l-4.4-1.1l-1.8,7.2c-1-0.2-1.9-0.4-2.8-0.7l0,0l-6.1-1.5l-1.2,4.7c0,0,3.3,0.7,3.2,0.8c1.8,0.4,2.1,1.6,2,2.6l-2,8.2
				c0.1,0,0.3,0.1,0.5,0.1c-0.1,0-0.3-0.1-0.5-0.1l-2.9,11.5c-0.2,0.5-0.8,1.4-2,1c0,0.1-3.2-0.8-3.2-0.8l-2.2,5l5.7,1.4
				c1.1,0.3,2.1,0.5,3.1,0.8l-1.8,7.3l4.4,1.1l1.8-7.2c1.2,0.3,2.4,0.6,3.5,0.9l-1.8,7.2l4.4,1.1l1.8-7.3c7.5,1.4,13.1,0.8,15.5-5.9
				c1.9-5.5-0.1-8.6-4-10.6C-1072-2494.6-1069.8-2496.4-1069.2-2500.3L-1069.2-2500.3L-1069.2-2500.3z M-1079.2-2486.3
				c-1.4,5.5-10.5,2.5-13.5,1.8l2.4-9.7C-1087.4-2493.4-1077.8-2492-1079.2-2486.3L-1079.2-2486.3z M-1077.9-2500.4
				c-1.2,5-8.9,2.4-11.4,1.8l2.2-8.8C-1084.6-2506.7-1076.6-2505.6-1077.9-2500.4L-1077.9-2500.4z"/>
		</g>
	</g>
	<g>
		<g id="Layer_1-2_3_">
			<path d="M-1058.1-2363.6l-9.6,4.9l-46.5,23.7c-0.2-1.2-0.2-2.4-0.2-3.6c0-15.3,12.4-27.7,27.7-27.7c4.7,0,9.4,1.2,13.5,3.5
				l5.5-2.8l0.8-0.4c-15.1-11-36.3-7.6-47.3,7.5c-4.2,5.8-6.5,12.7-6.5,19.9c0,0.9,0,1.7,0.1,2.6c0.2,2.5-1.1,4.8-3.3,6l-2.9,1.5
				v6.9l8.6-4.4l0,0l2.8-1.4l2.7-1.4l0,0l49-25l5.5-2.8l11.4-5.8v-6.9L-1058.1-2363.6z"/>
			<path d="M-1046.9-2355.6l-63.2,32.2l-5.5,2.8l-11.3,5.8v6.9l11.3-5.7l9.6-4.9l46.6-23.7c0.2,1.2,0.2,2.4,0.2,3.6
				c0,15.3-12.4,27.7-27.7,27.7c-4.7,0-9.4-1.2-13.5-3.5l-0.3,0.2l-6,3c15.1,11,36.3,7.6,47.3-7.5c4.2-5.8,6.5-12.7,6.5-19.9
				c0-0.9,0-1.7-0.1-2.6c-0.2-2.5,1.1-4.8,3.3-6l2.9-1.5V-2355.6z"/>
		</g>
	</g>
	<g id="Layer_x0020_1_2_">
		<g id="_1421394342400_1_">
			<g>
				<polygon class="st4" points="-786.9,-2536.4 -787.4,-2534.5 -787.4,-2480.7 -786.9,-2480.1 -761.9,-2494.9 				"/>
				<polygon class="st5" points="-786.9,-2536.4 -811.9,-2494.9 -786.9,-2480.1 -786.9,-2506.3 				"/>
				<polygon class="st6" points="-786.9,-2475.4 -787.2,-2475 -787.2,-2455.8 -786.9,-2454.9 -761.9,-2490.2 				"/>
				<polygon class="st5" points="-786.9,-2454.9 -786.9,-2475.4 -811.9,-2490.2 				"/>
				<polygon class="st7" points="-786.9,-2480.1 -761.9,-2494.9 -786.9,-2506.3 				"/>
				<polygon class="st8" points="-811.9,-2494.9 -786.9,-2480.1 -786.9,-2506.3 				"/>
			</g>
		</g>
	</g>
	<circle class="st3" cx="-787.6" cy="-2338.3" r="36.8"/>
	<path class="st9" d="M-787.6-2379.6c-22.8,0-41.3,18.5-41.3,41.3s18.5,41.3,41.3,41.3c22.8,0,41.3-18.5,41.3-41.3l0,0l0,0
		c0.1-22.7-18.3-41.2-41.1-41.3c0,0,0,0,0,0H-787.6z M-786.9-2336.9l-4.3,14.5h23c0.6,0,1.2,0.5,1.2,1.1c0,0,0,0,0,0v0.4l-2,6.9
		c-0.2,0.7-0.8,1.1-1.5,1.1h-35.2l5.9-20.1l-6.6,2l1.5-4.6l6.6-2l8.3-28.2c0.2-0.7,0.8-1.1,1.5-1.1h8.9c0.6,0,1.2,0.5,1.2,1.1
		c0,0,0,0,0,0v0.4l-7,23.8l6.6-2l-1.4,4.8L-786.9-2336.9z"/>
	<g>
		<g id="Layer_1-2_2_">
			<path class="st10" d="M-460.6-2528.8h11.6l-24.1,23.8c-8.7,8.6-22.8,8.6-31.6,0l-24.1-23.8h11.6l18.3,18.1c5.5,5.5,14.4,5.5,20,0
				L-460.6-2528.8z"/>
			<path class="st10" d="M-517.3-2462.5h-11.6l24.2-24c8.7-8.6,22.8-8.6,31.6,0l24.2,24h-11.6l-18.4-18.2c-5.5-5.5-14.4-5.5-20,0
				L-517.3-2462.5z"/>
		</g>
	</g>
	<circle class="st11" cx="-1086.9" cy="-2182.6" r="40"/>
	<circle class="st11" cx="-1086.9" cy="-2020.6" r="40"/>
	<circle class="st11" cx="-786.9" cy="-2182.6" r="40"/>
	<circle class="st11" cx="-786.9" cy="-2020.6" r="40"/>
	<circle class="st11" cx="-488.9" cy="-2183.6" r="40"/>
	<circle class="st11" cx="-488.9" cy="-2021.6" r="40"/>
	<circle class="st11" cx="-488.9" cy="-2342.6" r="40"/>
</g>
<g id="Layer_2">
	<rect x="-1546.9" y="-1668.6" class="st0" width="1366" height="2115"/>
	<text transform="matrix(1 0 0 1 -1379.5693 -1378.7444)" class="st23" style="font-family:'Roboto-Bold'; font-size:199.6367px;">Currencies.</text>
	<text transform="matrix(1 0 0 1 -1178.6167 -755.68)" class="st3" style="font-family:'Roboto-Bold'; font-size:199.6367px;">Bitcoin</text>
	<text transform="matrix(1 0 0 1 -1295.2495 -148.68)" class="st3" style="font-family:'Roboto-Bold'; font-size:199.6367px;">Ethereum</text>
	<text transform="matrix(1 0 0 1 -1155.1724 482.32)" class="st3" style="font-family:'Roboto-Bold'; font-size:199.6367px;">Tether</text>
	<g id="LOGOS_not_active">
		<g id="Layer_x0020_1_10_">
			<g id="_1421344023328_5_">
				<path class="st12" d="M-753.9-922c-15.1,60.7-76.6,97.7-137.4,82.5c-60.7-15.1-97.7-76.6-82.5-137.4
					c15.1-60.7,76.6-97.7,137.4-82.5C-775.7-1044.2-738.8-982.7-753.9-922L-753.9-922L-753.9-922z"/>
				<path class="st3" d="M-813.9-965.5c2.3-15.1-9.2-23.2-24.9-28.6l5.1-20.4l-12.4-3.1l-5,19.9c-3.3-0.8-6.6-1.6-10-2.3l5-20
					l-12.4-3.1l-5.1,20.4c-2.7-0.6-5.4-1.2-7.9-1.9l0-0.1l-17.2-4.3l-3.3,13.3c0,0,9.2,2.1,9,2.2c5,1.3,5.9,4.6,5.8,7.2L-893-963
					c0.3,0.1,0.8,0.2,1.3,0.4c-0.4-0.1-0.9-0.2-1.3-0.3l-8.1,32.6c-0.6,1.5-2.2,3.8-5.7,3c0.1,0.2-9-2.3-9-2.3l-6.2,14.2l16.2,4
					c3,0.8,6,1.5,8.9,2.3l-5.1,20.7l12.4,3.1l5.1-20.4c3.4,0.9,6.7,1.8,9.9,2.6l-5.1,20.3l12.4,3.1l5.1-20.6
					c21.2,4,37.2,2.4,43.9-16.8c5.4-15.4-0.3-24.4-11.4-30.2C-821.6-949.2-815.5-954.5-813.9-965.5L-813.9-965.5L-813.9-965.5z
					 M-842.3-925.7c-3.8,15.4-29.9,7.1-38.3,5l6.8-27.4C-865.3-946-838.3-941.8-842.3-925.7L-842.3-925.7z M-838.4-965.8
					c-3.5,14-25.2,6.9-32.2,5.2l6.2-24.8C-857.4-983.7-834.8-980.4-838.4-965.8L-838.4-965.8z"/>
			</g>
		</g>
		<g id="Layer_x0020_1_9_">
			<g id="_1421394342400_5_">
				<g>
					<polygon class="st4" points="-863.9,-435.6 -865.4,-430.4 -865.4,-280.5 -863.9,-279 -794.3,-320.2 					"/>
					<polygon class="st5" points="-863.9,-435.6 -933.5,-320.2 -863.9,-279 -863.9,-351.8 					"/>
					<polygon class="st13" points="-863.9,-265.9 -864.7,-264.8 -864.7,-211.4 -863.9,-208.9 -794.3,-307 					"/>
					<polygon class="st5" points="-863.9,-208.9 -863.9,-265.9 -933.5,-307 					"/>
					<polygon class="st7" points="-863.9,-279 -794.3,-320.2 -863.9,-351.8 					"/>
					<polygon class="st8" points="-933.5,-320.2 -863.9,-279 -863.9,-351.8 					"/>
				</g>
			</g>
		</g>
		<g id="tether-logo_3_">
			<path class="st14" d="M-946.4,157.8l-47.5,99.8c-0.4,0.8-0.2,1.7,0.4,2.3l128.3,123c0.8,0.7,2,0.7,2.7,0l128.3-123
				c0.6-0.6,0.8-1.5,0.4-2.3l-47.5-99.8c-0.3-0.7-1-1.1-1.8-1.1h-161.6C-945.4,156.7-946.1,157.1-946.4,157.8
				C-946.4,157.8-946.4,157.8-946.4,157.8z"/>
			<path class="st3" d="M-847.4,267.8L-847.4,267.8c-0.9,0.1-5.7,0.4-16.3,0.4c-8.4,0-14.4-0.3-16.5-0.4l0,0
				c-32.6-1.4-57-7.1-57-13.9s24.4-12.5,57-13.9v22.2c2.1,0.2,8.2,0.5,16.7,0.5c10.1,0,15.2-0.4,16.1-0.5V240
				c32.6,1.5,56.9,7.1,56.9,13.9S-814.8,266.4-847.4,267.8L-847.4,267.8L-847.4,267.8z M-847.4,237.7v-19.9h45.4v-30.3h-123.7v30.3
				h45.4v19.9c-36.9,1.7-64.7,9-64.7,17.8s27.8,16.1,64.7,17.8v63.6h32.8v-63.7c36.8-1.7,64.6-9,64.6-17.8S-810.5,239.4-847.4,237.7
				L-847.4,237.7L-847.4,237.7z M-847.4,237.7"/>
		</g>
		<g class="st15">
			<g id="Layer_1-2_9_" class="st16">
				<path class="st17" d="M-364.7-536.7h20.9l-43.6,43.2c-15.8,15.6-41.4,15.6-57.2,0l-43.6-43.2h21L-434-504
					c10,9.9,26.2,9.9,36.2,0L-364.7-536.7z"/>
				<path class="st17" d="M-467.4-416.7h-21l43.9-43.4c15.8-15.6,41.4-15.6,57.2,0l43.9,43.4h-20.9l-33.4-33
					c-10-9.9-26.2-9.9-36.2,0L-467.4-416.7z"/>
			</g>
		</g>
		<g class="st15">
			<g id="Layer_1-2_10_" class="st16">
				<path d="M-365.3-254.5l-17.1,8.7l-82.5,42c-0.3-2.1-0.4-4.3-0.4-6.4c0-27.1,22.1-49.1,49.2-49.1c8.4,0,16.6,2.2,23.9,6.2l9.8-5
					l1.5-0.7c-26.8-19.5-64.3-13.5-83.8,13.3c-7.4,10.2-11.4,22.6-11.4,35.3c0,1.5,0.1,3.1,0.2,4.6c0.3,4.4-2,8.5-5.9,10.5l-5.2,2.6
					v12.3l15.2-7.7l0,0l4.9-2.5l4.8-2.5l0,0l86.9-44.3l9.8-5l20.2-10.3v-12.3L-365.3-254.5z"/>
				<path d="M-345.2-240.2l-112,57l-9.8,5l-20.1,10.2v12.2l20-10.2l17.1-8.7l82.5-42.1c0.3,2.1,0.4,4.3,0.4,6.5
					c0,27.1-22,49.1-49.2,49.1c-8.4,0-16.7-2.2-24-6.3l-0.6,0.3l-10.6,5.4c26.8,19.5,64.3,13.5,83.8-13.3
					c7.4-10.2,11.4-22.6,11.4-35.2c0-1.5-0.1-3.1-0.2-4.6c-0.3-4.4,2-8.5,5.9-10.5l5.2-2.6V-240.2z"/>
			</g>
		</g>
		<path class="st18" d="M-1324.3-270.2c-33.1,0-60,26.9-60,60s26.9,60,60,60c33.1,0,60-26.9,60-60l0,0l0,0c0.1-33-26.6-59.9-59.7-60
			c0,0,0,0,0,0H-1324.3z M-1323.2-208.2l-6.2,21.1h33.4c0.9,0,1.7,0.7,1.7,1.6c0,0,0,0,0,0v0.6l-2.9,10c-0.3,1-1.2,1.6-2.2,1.6
			h-51.1l8.6-29.2l-9.6,2.9l2.2-6.7l9.6-2.9l12.1-41c0.3-1,1.2-1.6,2.2-1.6h12.9c0.9,0,1.7,0.7,1.7,1.6c0,0,0,0,0,0v0.6l-10.2,34.6
			l9.6-2.9l-2,7L-1323.2-208.2z"/>
	</g>
	<g id="LOGOS_active" class="st15">
		<g id="Layer_x0020_1_8_" class="st16">
			<g id="_1421344023328_4_">
				<path class="st2" d="M-828-1005.2c-8,32.1-40.6,51.7-72.7,43.7c-32.1-8-51.7-40.6-43.7-72.7c8-32.1,40.6-51.7,72.7-43.7
					C-839.5-1069.9-820-1037.4-828-1005.2L-828-1005.2L-828-1005.2z"/>
				<path class="st3" d="M-859.7-1028.3c1.2-8-4.9-12.3-13.2-15.1l2.7-10.8l-6.6-1.6l-2.6,10.5c-1.7-0.4-3.5-0.8-5.3-1.2l2.6-10.6
					l-6.6-1.6l-2.7,10.8c-1.4-0.3-2.8-0.6-4.2-1l0,0l-9.1-2.3l-1.8,7c0,0,4.9,1.1,4.8,1.2c2.7,0.7,3.1,2.4,3.1,3.8l-3.1,12.3
					c0.2,0,0.4,0.1,0.7,0.2c-0.2-0.1-0.5-0.1-0.7-0.2l-4.3,17.3c-0.3,0.8-1.2,2-3,1.6c0.1,0.1-4.8-1.2-4.8-1.2l-3.3,7.5l8.6,2.1
					c1.6,0.4,3.2,0.8,4.7,1.2l-2.7,10.9l6.6,1.6l2.7-10.8c1.8,0.5,3.5,0.9,5.2,1.4l-2.7,10.8l6.6,1.6l2.7-10.9
					c11.2,2.1,19.7,1.3,23.2-8.9c2.9-8.2-0.1-12.9-6-16C-863.8-1019.6-860.6-1022.4-859.7-1028.3L-859.7-1028.3L-859.7-1028.3z
					 M-874.8-1007.2c-2,8.2-15.8,3.8-20.3,2.6l3.6-14.5C-887-1017.9-872.6-1015.7-874.8-1007.2L-874.8-1007.2z M-872.7-1028.4
					c-1.9,7.4-13.3,3.7-17,2.7l3.3-13.1C-882.8-1037.9-870.8-1036.2-872.7-1028.4L-872.7-1028.4z"/>
			</g>
		</g>
		<g>
			<g id="Layer_1-2_8_" class="st16">
				<path d="M-365.2-310.5l-17.1,8.7l-82.5,42c-0.3-2.1-0.4-4.3-0.4-6.4c0-27.1,22.1-49.1,49.2-49.1c8.4,0,16.6,2.2,23.9,6.2l9.8-5
					l1.5-0.7c-26.8-19.5-64.3-13.5-83.8,13.3c-7.4,10.2-11.4,22.6-11.4,35.3c0,1.5,0.1,3.1,0.2,4.6c0.3,4.4-2,8.5-5.9,10.5l-5.2,2.6
					v12.3l15.2-7.7l0,0l4.9-2.5l4.8-2.5l0,0l86.9-44.3l9.8-5l20.2-10.3v-12.3L-365.2-310.5z"/>
				<path d="M-345.2-296.2l-112,57l-9.8,5L-487-224v12.2l20-10.2l17.1-8.7l82.5-42.1c0.3,2.1,0.4,4.3,0.4,6.5
					c0,27.1-22,49.1-49.2,49.1c-8.4,0-16.7-2.2-24-6.3l-0.6,0.3l-10.6,5.4c26.8,19.5,64.3,13.5,83.8-13.3
					c7.4-10.2,11.4-22.6,11.4-35.2c0-1.5-0.1-3.1-0.2-4.6c-0.3-4.4,2-8.5,5.9-10.5l5.2-2.6V-296.2z"/>
			</g>
		</g>
		<g id="Layer_x0020_1_7_">
			<g id="_1421394342400_4_" class="st16">
				<g>
					<polygon class="st4" points="-867.8,-592.7 -868.6,-590 -868.6,-510.7 -867.8,-509.9 -831,-531.6 					"/>
					<polygon class="st5" points="-867.8,-592.7 -904.6,-531.6 -867.8,-509.9 -867.8,-548.4 					"/>
					<polygon class="st6" points="-867.8,-502.9 -868.3,-502.3 -868.3,-474.1 -867.8,-472.7 -830.9,-524.6 					"/>
					<polygon class="st5" points="-867.8,-472.7 -867.8,-502.9 -904.6,-524.6 					"/>
					<polygon class="st7" points="-867.8,-509.9 -831,-531.6 -867.8,-548.4 					"/>
					<polygon class="st8" points="-904.6,-531.6 -867.8,-509.9 -867.8,-548.4 					"/>
				</g>
			</g>
		</g>
		<path class="st9" d="M-1324.2-326.2c-33.1,0-60,26.9-60,60s26.9,60,60,60c33.1,0,60-26.9,60-60l0,0l0,0c0.1-33-26.6-59.9-59.7-60
			c0,0,0,0,0,0H-1324.2z M-1323.2-264.2l-6.2,21.1h33.4c0.9,0,1.7,0.7,1.7,1.6c0,0,0,0,0,0v0.6l-2.9,10c-0.3,1-1.2,1.6-2.2,1.6
			h-51.1l8.6-29.2l-9.6,2.9l2.2-6.7l9.6-2.9l12.1-41c0.3-1,1.2-1.6,2.2-1.6h12.9c0.9,0,1.7,0.7,1.7,1.6c0,0,0,0,0,0v0.6L-1321-271
			l9.6-2.9l-2,7L-1323.2-264.2z"/>
		<g>
			<g id="Layer_1-2_7_" class="st16">
				<path class="st10" d="M-364.6-592.7h20.9l-43.6,43.2c-15.8,15.6-41.4,15.6-57.2,0l-43.6-43.2h21L-434-560
					c10,9.9,26.2,9.9,36.2,0L-364.6-592.7z"/>
				<path class="st10" d="M-467.4-472.7h-21l43.9-43.4c15.8-15.6,41.4-15.6,57.2,0l43.9,43.4h-20.9l-33.4-33
					c-10-9.9-26.2-9.9-36.2,0L-467.4-472.7z"/>
			</g>
		</g>
		<g id="tether-logo_2_">
			<path class="st19" d="M-909.2-325.6l-25.2,52.8c-0.2,0.4-0.1,0.9,0.2,1.2l67.9,65.1c0.4,0.4,1,0.4,1.4,0l67.9-65.1
				c0.3-0.3,0.4-0.8,0.2-1.2l-25.2-52.8c-0.2-0.4-0.5-0.6-0.9-0.6h-85.6C-908.7-326.2-909.1-326-909.2-325.6
				C-909.2-325.6-909.2-325.6-909.2-325.6z"/>
			<path class="st20" d="M-856.8-267.4L-856.8-267.4c-0.5,0-3,0.2-8.6,0.2c-4.5,0-7.6-0.1-8.8-0.2l0,0c-17.3-0.8-30.2-3.8-30.2-7.4
				s12.9-6.6,30.2-7.4v11.7c1.1,0.1,4.4,0.3,8.8,0.3c5.4,0,8.1-0.2,8.5-0.3v-11.7c17.2,0.8,30.1,3.8,30.1,7.4
				S-839.6-268.1-856.8-267.4L-856.8-267.4L-856.8-267.4z M-856.8-283.3v-10.5h24.1v-16h-65.5v16h24.1v10.5
				c-19.6,0.9-34.3,4.8-34.3,9.4c0,4.6,14.7,8.5,34.3,9.4v33.7h17.4v-33.7c19.5-0.9,34.2-4.8,34.2-9.4
				C-822.6-278.5-837.3-282.4-856.8-283.3L-856.8-283.3L-856.8-283.3z M-856.8-283.3"/>
		</g>
	</g>
</g>
<g id="Layer_3">
	<rect x="-34.9" y="-1770.6" class="st0" width="1366" height="768"/>
	<g id="Layer_x0020_1_1_">
		<g id="_1421394342400_2_">
			<g>
				<polygon class="st4" points="649.2,-1716.7 648.4,-1714 648.4,-1634.7 649.2,-1633.9 686,-1655.6 				"/>
				<polygon class="st5" points="649.2,-1716.7 612.4,-1655.6 649.2,-1633.9 649.2,-1672.4 				"/>
				<polygon class="st6" points="649.2,-1626.9 648.7,-1626.3 648.7,-1598.1 649.2,-1596.7 686.1,-1648.6 				"/>
				<polygon class="st5" points="649.2,-1596.7 649.2,-1626.9 612.4,-1648.6 				"/>
				<polygon class="st7" points="649.2,-1633.9 686,-1655.6 649.2,-1672.4 				"/>
				<polygon class="st8" points="612.4,-1655.6 649.2,-1633.9 649.2,-1672.4 				"/>
			</g>
		</g>
	</g>
	<text transform="matrix(1 0 0 1 479.2405 -1500.6428)"><tspan x="0" y="0" class="st23" style="font-family:'Roboto-Regular'; font-size:48px;">Ethereum </tspan><tspan x="216.9" y="0" class="st23" style="font-family:'Roboto-Light'; font-size:48px;">(ETH)</tspan></text>
	<text transform="matrix(1 0 0 1 414.9866 -1426.6428)"><tspan x="0" y="0" class="st23" style="font-family:'Roboto-Thin'; font-size:48px;">$209,85 USD</tspan><tspan x="269.9" y="0" style="font-family:'Roboto-Thin'; font-size:48px;"> </tspan><tspan x="281.4" y="0" style="fill:#D94040; font-family:'Roboto-Thin'; font-size:48px;">(−2,19%)</tspan></text>
</g>
<g id="LOGO-BTC">
	<rect x="0.1" y="-863.6" class="st21" width="800" height="800"/>
	<g id="Layer_x0020_1_4_">
		<g id="_1421344023328_2_">
			<path class="st2" d="M642.5-403.5c-33.4,133.9-169,215.4-303,182c-133.9-33.4-215.4-169-182-303
				c33.4-133.9,169-215.5,302.9-182.1C594.4-673.1,675.9-537.5,642.5-403.5L642.5-403.5L642.5-403.5z"/>
			<path class="st3" d="M510.2-499.6c5-33.3-20.4-51.2-55-63.1l11.2-45.1l-27.4-6.8l-10.9,43.9c-7.2-1.8-14.6-3.5-22-5.2l11-44.2
				l-27.4-6.8l-11.2,45.1c-6-1.4-11.8-2.7-17.5-4.1l0-0.1l-37.8-9.4l-7.3,29.3c0,0,20.4,4.7,19.9,5c11.1,2.8,13.1,10.1,12.8,16
				L335.8-494c0.8,0.2,1.8,0.5,2.9,0.9c-0.9-0.2-1.9-0.5-2.9-0.7l-17.9,71.9c-1.4,3.4-4.8,8.4-12.6,6.5c0.3,0.4-19.9-5-19.9-5
				l-13.6,31.4l35.7,8.9c6.6,1.7,13.1,3.4,19.6,5l-11.4,45.6l27.4,6.8l11.2-45.1c7.5,2,14.8,3.9,21.9,5.7l-11.2,44.9l27.4,6.8
				l11.4-45.5c46.8,8.9,82,5.3,96.8-37c11.9-34.1-0.6-53.7-25.2-66.5C493.1-463.5,506.6-475.3,510.2-499.6L510.2-499.6L510.2-499.6z
				 M447.6-411.7c-8.5,34.1-65.8,15.7-84.4,11l15.1-60.4C396.8-456.4,456.4-447.3,447.6-411.7L447.6-411.7z M456-500.1
				c-7.7,31-55.5,15.2-71,11.4l13.7-54.8C414.2-539.6,464.1-532.4,456-500.1L456-500.1z"/>
		</g>
	</g>
	<g id="Layer_x0020_1_5_" class="st15">
		<g id="_1421344023328_3_" class="st16">
			<path class="st12" d="M642.5-403.5c-33.4,133.9-169,215.4-303,182c-133.9-33.4-215.4-169-182-303
				c33.4-133.9,169-215.5,302.9-182.1C594.4-673.1,675.9-537.5,642.5-403.5L642.5-403.5L642.5-403.5z"/>
			<path class="st3" d="M510.2-499.6c5-33.3-20.4-51.2-55-63.1l11.2-45.1l-27.4-6.8l-10.9,43.9c-7.2-1.8-14.6-3.5-22-5.2l11-44.2
				l-27.4-6.8l-11.2,45.1c-6-1.4-11.8-2.7-17.5-4.1l0-0.1l-37.8-9.4l-7.3,29.3c0,0,20.4,4.7,19.9,5c11.1,2.8,13.1,10.1,12.8,16
				L335.8-494c0.8,0.2,1.8,0.5,2.9,0.9c-0.9-0.2-1.9-0.5-2.9-0.7l-17.9,71.9c-1.4,3.4-4.8,8.4-12.6,6.5c0.3,0.4-19.9-5-19.9-5
				l-13.6,31.4l35.7,8.9c6.6,1.7,13.1,3.4,19.6,5l-11.4,45.6l27.4,6.8l11.2-45.1c7.5,2,14.8,3.9,21.9,5.7l-11.2,44.9l27.4,6.8
				l11.4-45.5c46.8,8.9,82,5.3,96.8-37c11.9-34.1-0.6-53.7-25.2-66.5C493.1-463.5,506.6-475.3,510.2-499.6L510.2-499.6L510.2-499.6z
				 M447.6-411.7c-8.5,34.1-65.8,15.7-84.4,11l15.1-60.4C396.8-456.4,456.4-447.3,447.6-411.7L447.6-411.7z M456-500.1
				c-7.7,31-55.5,15.2-71,11.4l13.7-54.8C414.2-539.6,464.1-532.4,456-500.1L456-500.1z"/>
		</g>
	</g>
	<text transform="matrix(1 0 0 1 201.0024 -130.5003)" class="st3" style="font-family:'Poppins-Bold'; font-size:200px;">BTC</text>
</g>
<g id="LOGO-ETH">
	<rect x="850.1" y="-863.6" class="st15" width="800" height="800"/>
	<g id="Layer_x0020_1">
		<g id="_1421394342400">
			<g>
				<polygon class="st4" points="1250,-714 1246.6,-702.6 1246.6,-372 1250,-368.6 1403.4,-459.4 				"/>
				<polygon class="st5" points="1250,-714 1096.5,-459.4 1250,-368.6 1250,-529.1 				"/>
				<polygon class="st6" points="1250,-339.6 1248.1,-337.3 1248.1,-219.5 1250,-214 1403.5,-430.3 				"/>
				<polygon class="st5" points="1250,-214 1250,-339.6 1096.5,-430.3 				"/>
				<polygon class="st7" points="1250,-368.6 1403.4,-459.4 1250,-529.1 				"/>
				<polygon class="st8" points="1096.5,-459.4 1250,-368.6 1250,-529.1 				"/>
			</g>
		</g>
	</g>
	<text transform="matrix(1 0 0 1 1065.4036 -130.5003)" class="st3" style="font-family:'Poppins-Bold'; font-size:200px;">ETH</text>
</g>
<g id="LOGO-LTC">
	<rect x="0.1" y="0.4" class="st15" width="800" height="800"/>
	<ellipse class="st3" cx="398.6" cy="398.9" rx="219.5" ry="211.5"/>
	<path class="st9" d="M400,147.2c-139.6,0-252.8,113.2-252.8,252.8S260.4,652.8,400,652.8S652.8,539.6,652.8,400l0,0l0,0
		c0.4-139.2-112.1-252.4-251.4-252.8c0,0,0,0,0,0H400z M404.3,408.6L378,497.3h140.8c3.9-0.1,7.2,2.9,7.3,6.8c0,0,0,0,0,0v2.3
		l-12.2,42.2c-1.1,4.1-4.9,6.9-9.2,6.7H289.2l36.1-123.1l-40.4,12.2l9.2-28.2l40.4-12.2l50.8-172.6c1.2-4.1,4.9-6.9,9.2-6.7H449
		c3.9-0.1,7.2,2.9,7.3,6.8c0,0,0,0,0,0v2.3l-42.9,145.7l40.4-12.2l-8.6,29.4L404.3,408.6z"/>
	<path class="st22" d="M400,147.2c-139.6,0-252.8,113.2-252.8,252.8S260.4,652.8,400,652.8S652.8,539.6,652.8,400l0,0l0,0
		c0.4-139.2-112.1-252.4-251.4-252.8c0,0,0,0,0,0H400z M404.3,408.6L378,497.3h140.8c3.9-0.1,7.2,2.9,7.3,6.8c0,0,0,0,0,0v2.3
		l-12.2,42.2c-1.1,4.1-4.9,6.9-9.2,6.7H289.2l36.1-123.1l-40.4,12.2l9.2-28.2l40.4-12.2l50.8-172.6c1.2-4.1,4.9-6.9,9.2-6.7H449
		c3.9-0.1,7.2,2.9,7.3,6.8c0,0,0,0,0,0v2.3l-42.9,145.7l40.4-12.2l-8.6,29.4L404.3,408.6z"/>
	<g>
		<path class="st3" d="M264.5,713.3h45.6v26.2h-79.8V598.1h34.2V713.3z"/>
		<path class="st3" d="M427.5,598.1v27.2h-38.4v114.2h-34.4V625.3h-38v-27.2H427.5z"/>
		<path class="st3" d="M551.2,610.9c11.8,9.5,19.4,22.3,22.9,38.4h-36.2c-2.7-6.5-6.8-11.7-12.3-15.4c-5.5-3.7-12.1-5.6-19.7-5.6
			c-10,0-18.1,3.7-24.2,11c-6.1,7.3-9.2,17.1-9.2,29.4c0,12.3,3.1,22,9.2,29.3c6.1,7.3,14.2,10.9,24.2,10.9c7.6,0,14.2-1.9,19.7-5.6
			c5.5-3.7,9.6-8.8,12.3-15.2h36.2c-3.5,16-11.1,28.8-22.9,38.3c-11.8,9.5-26.7,14.3-44.7,14.3c-13.7,0-25.8-3-36.2-9.1
			c-10.4-6.1-18.4-14.6-24.1-25.5c-5.7-10.9-8.5-23.4-8.5-37.4s2.8-26.5,8.5-37.4c5.7-10.9,13.7-19.4,24.1-25.5
			c10.4-6.1,22.5-9.1,36.2-9.1C524.5,596.7,539.4,601.4,551.2,610.9z"/>
	</g>
</g>
<g id="hamburger">
	<rect x="-270.2" y="-1637.6" class="st23" width="49" height="3.9"/>
	<rect x="-270.2" y="-1622.1" class="st23" width="49" height="3.9"/>
	<rect x="-270.2" y="-1606.6" class="st23" width="49" height="3.9"/>
</g>
<g id="hamburger_copy">
	<rect x="1243.8" y="-1739.6" class="st23" width="49" height="3.9"/>
	<rect x="1243.8" y="-1724.1" class="st23" width="49" height="3.9"/>
	<rect x="1243.8" y="-1708.6" class="st23" width="49" height="3.9"/>
</g>
</svg>
