<?xml version="1.0" encoding="utf-8"?>
<!-- Generator: Adobe Illustrator 22.0.1, SVG Export Plug-In . SVG Version: 6.00 Build 0)  -->
<svg version="1.1" xmlns="http://www.w3.org/2000/svg" xmlns:xlink="http://www.w3.org/1999/xlink" x="0px" y="0px"
	 viewBox="0 0 100 100" style="enable-background:new 0 0 100 100;" xml:space="preserve">
<style type="text/css">
	.st0{fill:#FFC107;}
	.st1{fill:#44D7B6;}
	.st2{fill:#E83E8C;}
	.st3{fill:#EBA63F;}
	.st4{display:none;fill:#F7931A;}
	.st5{fill:#FFFFFF;}
	.st6{display:none;fill:#3CBCC3;}
	.st7{fill:#3CBCC3;}
	.st8{fill:#438945;}
	.st9{fill:#808080;}
	.st10{fill:#E2E2E2;}
	.st11{fill:#92928F;}
	.st12{fill:#3A3A3A;}
	.st13{fill:#8F8F8F;}
	.st14{fill:#FF6700;}
	.st15{fill:#42C43E;}
	.st16{fill:#CA3648;}
	.st17{fill:#616161;}
</style>
<g id="emzl">
	<circle class="st0" cx="-218" cy="-201.8" r="50"/>
	<circle class="st1" cx="-218" cy="-95.3" r="50"/>
	<circle class="st2" cx="-112" cy="-95.3" r="50"/>
	<circle cx="-112" cy="-201.8" r="50"/>
	<text transform="matrix(1 0 0 1 -243.5979 -168.7165)" style="font-family:'Roboto-Light'; font-size:90px;">E</text>
	<text transform="matrix(1 0 0 1 -243.5979 -62.2165)" style="font-family:'Roboto-Light'; font-size:90px;">Z</text>
	<text transform="matrix(1 0 0 1 -135.7085 -62.2165)" style="font-family:'Roboto-Light'; font-size:90px;">L</text>
	<text transform="matrix(1 0 0 1 -150.9358 -168.7165)" class="st5" style="font-family:'Roboto-Light'; font-size:90px;">M</text>
</g>
<g id="cryptos">
	<circle class="st3" cx="47" cy="-201.8" r="50"/>
	<g id="Layer_x0020_1">
		<g id="_1421344023328">
			<path class="st4" d="M95.5-189.7c-6.7,26.8-33.8,43.1-60.6,36.4c-26.8-6.7-43.1-33.8-36.4-60.6c6.7-26.8,33.8-43.1,60.6-36.4
				C85.9-243.6,102.2-216.4,95.5-189.7L95.5-189.7L95.5-189.7z"/>
			<path class="st5" d="M69-208.9c1-6.7-4.1-10.2-11-12.6l2.2-9l-5.5-1.4l-2.2,8.8c-1.4-0.4-2.9-0.7-4.4-1l2.2-8.8l-5.5-1.4l-2.2,9
				c-1.2-0.3-2.4-0.5-3.5-0.8l0,0l-7.6-1.9l-1.5,5.9c0,0,4.1,0.9,4,1c2.2,0.6,2.6,2,2.6,3.2l-2.6,10.3c0.2,0,0.4,0.1,0.6,0.2
				c-0.2,0-0.4-0.1-0.6-0.1l-3.6,14.4c-0.3,0.7-1,1.7-2.5,1.3c0.1,0.1-4-1-4-1l-2.7,6.3l7.1,1.8c1.3,0.3,2.6,0.7,3.9,1l-2.3,9.1
				l5.5,1.4l2.2-9c1.5,0.4,3,0.8,4.4,1.1l-2.2,9l5.5,1.4l2.3-9.1c9.4,1.8,16.4,1.1,19.4-7.4c2.4-6.8-0.1-10.7-5-13.3
				C65.6-201.6,68.3-204,69-208.9L69-208.9L69-208.9z M56.5-191.3c-1.7,6.8-13.2,3.1-16.9,2.2l3-12.1
				C46.4-200.2,58.3-198.4,56.5-191.3L56.5-191.3z M58.2-209c-1.5,6.2-11.1,3-14.2,2.3l2.7-11C49.8-216.9,59.8-215.4,58.2-209
				L58.2-209z"/>
		</g>
	</g>
	<circle class="st6" cx="47" cy="-95.3" r="50"/>
	<circle class="st5" cx="46" cy="-94.3" r="41.3"/>
	<path class="st7" d="M47-145.2c-27.6,0-50,22.4-50,50s22.4,50,50,50s50-22.4,50-50l0,0l0,0c0.1-27.5-22.2-49.9-49.7-50c0,0,0,0,0,0
		H47z M47.8-93.6L42.6-76h27.8c0.8,0,1.4,0.6,1.5,1.4c0,0,0,0,0,0v0.5l-2.4,8.4c-0.2,0.8-1,1.4-1.8,1.3H25.1l7.1-24.3l-8,2.4
		l1.8-5.6l8-2.4l10-34.1c0.2-0.8,1-1.4,1.8-1.3h10.8c0.8,0,1.4,0.6,1.5,1.4c0,0,0,0,0,0v0.5l-8.5,28.8l8-2.4L56-95.9L47.8-93.6z"/>
	<circle cx="153" cy="-95.3" r="50"/>
	<circle class="st8" cx="153" cy="-201.8" r="50"/>
	<g id="Layer_x0020_1_1_">
		<g id="_1421394342400">
			<g>
				<polygon class="st9" points="153,-241.4 152.5,-239.6 152.5,-187.2 153,-186.6 177.3,-201 				"/>
				<polygon class="st10" points="153,-241.4 128.6,-201 153,-186.6 153,-212.1 				"/>
				<polygon class="st11" points="153,-182 152.7,-181.6 152.7,-163 153,-162.1 177.4,-196.4 				"/>
				<polygon class="st10" points="153,-162.1 153,-182 128.6,-196.4 				"/>
				<polygon class="st12" points="153,-186.6 177.3,-201 153,-212.1 				"/>
				<polygon class="st13" points="128.6,-201 153,-186.6 153,-212.1 				"/>
			</g>
		</g>
	</g>
	<text transform="matrix(1 0 0 1 119.7715 -60.791)" class="st5" style="font-family:'MyriadPro-Regular'; font-size:98.166px;">©</text>
</g>
<g id="emzl-style">
	<rect x="256" y="-151.8" class="st1" width="100" height="100"/>
	<rect x="356" y="-151.8" class="st2" width="100" height="100"/>
	<rect x="356" y="-251.8" width="100" height="100"/>
	<rect x="256" y="-251.8" class="st0" width="100" height="100"/>
	<g>
		<path d="M323.8-202.1h-29.9v26.1h34.4v4.6h-39.8v-64h39.6v4.6h-34.2v24.2h29.9V-202.1z"/>
	</g>
	<g>
		<path d="M289.6-73.3h39.5v4.6H283v-4.1l38-55.3h-36.8v-4.6h43.5v3.8L289.6-73.3z"/>
	</g>
	<g>
		<path d="M395.8-73.3h31.6v4.6h-37v-64h5.4V-73.3z"/>
	</g>
	<g>
		<path class="st5" d="M382.3-235.4l23.6,56.5l23.7-56.5h7.2v64h-5.4v-27.9l0.4-28.6L408-171.4h-4.2l-23.7-56.2l0.4,28.2v28h-5.4
			v-64H382.3z"/>
	</g>
</g>
<g id="emyl-style2">
	<circle class="st0" cx="-218" cy="53.3" r="50"/>
	<circle class="st1" cx="-218" cy="159.8" r="50"/>
	<circle class="st2" cx="-112" cy="159.8" r="50"/>
	<circle cx="-112" cy="53.3" r="50"/>
	<circle class="st5" cx="-189.4" cy="32.8" r="17.9"/>
	<circle class="st5" cx="-130.1" cy="83.1" r="18.1"/>
	<circle class="st5" cx="-93.9" cy="83.1" r="18.1"/>
	<ellipse class="st5" cx="-113.1" cy="95.8" rx="18.1" ry="12.7"/>
	<circle class="st5" cx="-189.4" cy="73.5" r="17.9"/>
	<circle class="st5" cx="-112" cy="21.4" r="21.8"/>
	<circle class="st5" cx="-253.6" cy="159.8" r="19.4"/>
	<circle class="st5" cx="-182.4" cy="159.8" r="19.4"/>
	<circle class="st5" cx="-93.9" cy="145.9" r="37.4"/>
</g>
<g id="emzl-style3">
	<circle class="st0" cx="50" cy="50" r="50"/>
	<path class="st14" d="M99.5,57.3c0.4-2.4,0.5-4.8,0.5-7.3s-0.2-4.9-0.5-7.3H14.8c1.1-5.2,3.2-9.9,6.3-14h74.2
		C92.6,23.1,89,18.2,84.7,14H15.3C5.9,23.1,0,35.9,0,50s5.9,26.9,15.3,36h69.4c4.4-4.2,8-9.2,10.5-14.7H21c-3-4.1-5.2-8.8-6.3-14
		H99.5z"/>
	<path class="st1" d="M100,156.5c0,14.2-5.9,27-15.4,36c-9,8.7-21.2,14-34.6,14c-8.5,0-16.5-2.1-23.5-5.8c-4.1-2.2-7.9-4.9-11.2-8.1
		c0,0-0.1,0-0.1-0.1C5.8,183.4,0,170.6,0,156.5c0-14.2,5.9-27,15.4-36c9-8.6,21.2-14,34.6-14c8.5,0,16.5,2.1,23.5,5.8
		c4.1,2.2,7.9,4.9,11.2,8.1c0,0,0.1,0.1,0.1,0.1C94.2,129.6,100,142.4,100,156.5z"/>
	<path class="st15" d="M84.8,120.6l-50.6,69.6c0.3,0.3,3.4,2.3,13.7,2.3c0.9,0,1.7,0,2.3,0.1h34.5c-9,8.7-21.2,14-34.6,14
		c-8.5,0-16.5-2.1-23.5-5.8c-4.1-2.2-7.9-4.9-11.2-8.1h-0.2l0.1-0.1l50.6-69.7c0,0-2.8-2.3-13.7-2.3H15.4c9-8.6,21.2-14,34.6-14
		c8.5,0,16.5,2.1,23.5,5.8c4.1,2.2,7.9,4.9,11.2,8.1h0.2L84.8,120.6z"/>
	<path class="st2" d="M206,156.5c0,14.1-5.9,26.9-15.3,36c-9,8.7-21.2,14-34.7,14c-7.4,0-14.5-1.6-20.8-4.5
		c-5.1-2.4-9.8-5.6-13.9-9.5c0,0-0.1-0.1-0.1-0.1c-9.4-9.1-15.2-21.8-15.2-35.9s5.8-26.8,15.2-35.9c4.1-3.9,8.8-7.2,14-9.6
		c6.3-2.9,13.4-4.5,20.8-4.5C183.6,106.5,206,128.9,206,156.5z"/>
	<path class="st16" d="M190.7,192.5c-9,8.7-21.2,14-34.7,14c-7.4,0-14.5-1.6-20.8-4.5c-5.1-2.4-9.8-5.6-13.9-9.5h-0.1v-71.9
		c4.1-3.9,8.8-7.2,14-9.6v79.7c1.7,0.5,4.4,1.2,7.4,1.8H190.7z"/>
	<circle cx="156" cy="50" r="50"/>
	<path class="st17" d="M148.7,99.5c2.4,0.4,4.8,0.5,7.3,0.5s4.9-0.2,7.3-0.5V14.8c5.2,1.1,9.9,3.2,14,6.3v74.2
		c5.5-2.6,10.5-6.2,14.7-10.5V15.3C182.9,5.9,170.1,0,156,0s-26.9,5.9-36,15.3v69.4c4.2,4.4,9.2,8,14.7,10.5V21
		c4.1-3,8.8-5.2,14-6.3V99.5z"/>
</g>
</svg>
