<?xml version="1.0" standalone="no"?>
<!DOCTYPE svg PUBLIC "-//W3C//DTD SVG 20010904//EN"
 "http://www.w3.org/TR/2001/REC-SVG-20010904/DTD/svg10.dtd">
<svg version="1.0" xmlns="http://www.w3.org/2000/svg"
 width="1884.000000pt" height="1884.000000pt" viewBox="0 0 1884.000000 1884.000000"
 preserveAspectRatio="xMidYMid meet">

<g transform="translate(0.000000,1884.000000) scale(0.100000,-0.100000)"
fill="#000000" stroke="none">
<path d="M4465 18834 c-587 -44 -1002 -135 -1485 -325 -458 -180 -865 -420
-1270 -749 -132 -107 -490 -462 -602 -595 -611 -732 -980 -1600 -1083 -2545
-36 -333 -30 -766 16 -1115 204 -1548 1181 -2909 2584 -3599 503 -248 994
-392 1580 -462 215 -26 795 -26 1010 0 348 42 672 112 970 211 872 288 1639
824 2212 1543 582 729 956 1684 1009 2574 9 138 22 193 23 95 1 -37 8 -134 16
-215 113 -1089 584 -2080 1355 -2852 1052 -1051 2519 -1539 4000 -1329 1512
214 2836 1166 3528 2536 282 558 445 1151 493 1793 15 195 6 656 -15 840 -66
563 -215 1075 -456 1565 -369 751 -929 1386 -1630 1850 -619 410 -1295 656
-2060 750 -180 23 -689 31 -887 16 -1046 -84 -1989 -482 -2768 -1172 -679
-600 -1175 -1395 -1416 -2268 -80 -292 -142 -662 -156 -931 -6 -122 -21 -143
-22 -32 -3 182 -60 560 -127 832 -164 668 -467 1282 -900 1825 -150 188 -501
545 -674 685 -746 605 -1578 954 -2520 1055 -136 15 -616 27 -725 19z m1675
-2014 l0 -260 -1260 0 -1260 0 0 -970 0 -970 1230 0 1230 0 0 -260 0 -260
-1230 0 -1230 0 0 -995 0 -995 1260 0 1260 0 -2 -262 -3 -263 -1520 0 -1520 0
-3 2748 -2 2747 1525 0 1525 0 0 -260z"/>
<path d="M3030 7190 l0 -230 1315 0 c723 0 1315 -2 1315 -4 0 -2 -605 -1018
-1345 -2257 l-1345 -2253 2 -261 3 -260 1698 -3 1697 -2 0 265 0 265 -1370 0
c-753 0 -1370 4 -1370 8 0 4 603 1018 1340 2252 l1340 2245 0 232 0 233 -1640
0 -1640 0 0 -230z"/>
<path d="M12820 4670 l0 -2750 1405 0 1405 0 0 265 0 265 -1140 0 -1140 0 0
2485 0 2485 -265 0 -265 0 0 -2750z"/>
</g>
</svg>
