<?xml version="1.0" encoding="utf-8"?>
<!-- Generator: Adobe Illustrator 22.0.1, SVG Export Plug-In . SVG Version: 6.00 Build 0)  -->
<svg version="1.1" id="Layer_1" xmlns="http://www.w3.org/2000/svg" xmlns:xlink="http://www.w3.org/1999/xlink" x="0px" y="0px"
	 viewBox="0 0 100 100" style="enable-background:new 0 0 100 100;" xml:space="preserve">
<style type="text/css">
	.st0{fill:#FFC107;}
	.st1{fill:#44D7B6;}
	.st2{fill:#E83E8C;}
	.st3{fill:#FFFFFF;}
</style>
<circle class="st0" cx="50" cy="-56.5" r="50"/>
<circle class="st1" cx="50" cy="50" r="50"/>
<circle class="st2" cx="156" cy="50" r="50"/>
<circle cx="156" cy="-56.5" r="50"/>
<g>
	<path d="M67.8-54.1H37.9V-28h34.4v4.6H32.5v-64h39.6v4.6H37.9v24.2h29.9V-54.1z"/>
</g>
<g>
	<path d="M33.6,78.5h39.5V83H27v-4.1l38-55.3H28.2V19h43.5v3.8L33.6,78.5z"/>
</g>
<text transform="matrix(1 0 0 1 132.2915 83.0335)" style="font-family:'Roboto-Light'; font-size:90px;">L</text>
<g>
	<path class="st3" d="M132.3-87.5L155.9-31l23.7-56.5h7.2v64h-5.4v-27.9l0.4-28.6L158-23.5h-4.2l-23.7-56.2l0.4,28.2v28h-5.4v-64
		H132.3z"/>
</g>
</svg>
