<?xml version="1.0" encoding="utf-8"?>
<!-- Generator: Adobe Illustrator 22.0.1, SVG Export Plug-In . SVG Version: 6.00 Build 0)  -->
<svg version="1.1" xmlns="http://www.w3.org/2000/svg" xmlns:xlink="http://www.w3.org/1999/xlink" x="0px" y="0px"
	 viewBox="0 0 100 100" style="enable-background:new 0 0 100 100;" xml:space="preserve">
<style type="text/css">
	.st0{fill:#FFC107;}
	.st1{fill:#44D7B6;}
	.st2{fill:#E83E8C;}
	.st3{fill:#EBA63F;}
	.st4{display:none;fill:#F7931A;}
	.st5{fill:#FFFFFF;}
	.st6{display:none;fill:#3CBCC3;}
	.st7{fill:#3CBCC3;}
	.st8{fill:#438945;}
	.st9{fill:#808080;}
	.st10{fill:#E2E2E2;}
	.st11{fill:#92928F;}
	.st12{fill:#3A3A3A;}
	.st13{fill:#8F8F8F;}
</style>
<g id="emzl">
	<circle class="st0" cx="-474" cy="50" r="50"/>
	<circle class="st1" cx="-474" cy="156.5" r="50"/>
	<circle class="st2" cx="-368" cy="156.5" r="50"/>
	<circle cx="-368" cy="50" r="50"/>
	<text transform="matrix(1 0 0 1 -499.5979 83.0335)" style="font-family:'Roboto-Light'; font-size:90px;">E</text>
	<text transform="matrix(1 0 0 1 -499.5979 189.5335)" style="font-family:'Roboto-Light'; font-size:90px;">Z</text>
	<text transform="matrix(1 0 0 1 -391.7085 189.5335)" style="font-family:'Roboto-Light'; font-size:90px;">L</text>
	<text transform="matrix(1 0 0 1 -406.9358 83.0335)" class="st5" style="font-family:'Roboto-Light'; font-size:90px;">M</text>
</g>
<g id="cryptos">
	<circle class="st3" cx="-209" cy="50" r="50"/>
	<g id="Layer_x0020_1">
		<g id="_1421344023328">
			<path class="st4" d="M-160.5,62.1c-6.7,26.8-33.8,43.1-60.6,36.4c-26.8-6.7-43.1-33.8-36.4-60.6c6.7-26.8,33.8-43.1,60.6-36.4
				C-170.1,8.2-153.8,35.3-160.5,62.1L-160.5,62.1L-160.5,62.1z"/>
			<path class="st5" d="M-187,42.9c1-6.7-4.1-10.2-11-12.6l2.2-9l-5.5-1.4l-2.2,8.8c-1.4-0.4-2.9-0.7-4.4-1l2.2-8.8l-5.5-1.4l-2.2,9
				c-1.2-0.3-2.4-0.5-3.5-0.8l0,0l-7.6-1.9l-1.5,5.9c0,0,4.1,0.9,4,1c2.2,0.6,2.6,2,2.6,3.2l-2.6,10.3c0.2,0,0.4,0.1,0.6,0.2
				c-0.2,0-0.4-0.1-0.6-0.1l-3.6,14.4c-0.3,0.7-1,1.7-2.5,1.3c0.1,0.1-4-1-4-1l-2.7,6.3l7.1,1.8c1.3,0.3,2.6,0.7,3.9,1l-2.3,9.1
				l5.5,1.4l2.2-9c1.5,0.4,3,0.8,4.4,1.1l-2.2,9l5.5,1.4l2.3-9.1c9.4,1.8,16.4,1.1,19.4-7.4c2.4-6.8-0.1-10.7-5-13.3
				C-190.4,50.1-187.7,47.7-187,42.9L-187,42.9L-187,42.9z M-199.5,60.5c-1.7,6.8-13.2,3.1-16.9,2.2l3-12.1
				C-209.6,51.5-197.7,53.3-199.5,60.5L-199.5,60.5z M-197.8,42.8c-1.5,6.2-11.1,3-14.2,2.3l2.7-11
				C-206.2,34.9-196.2,36.3-197.8,42.8L-197.8,42.8z"/>
		</g>
	</g>
	<circle class="st6" cx="-209" cy="156.5" r="50"/>
	<circle class="st5" cx="-210" cy="157.5" r="41.3"/>
	<path class="st7" d="M-209,106.5c-27.6,0-50,22.4-50,50s22.4,50,50,50s50-22.4,50-50l0,0l0,0c0.1-27.5-22.2-49.9-49.7-50
		c0,0,0,0,0,0H-209z M-208.2,158.2l-5.2,17.6h27.8c0.8,0,1.4,0.6,1.5,1.4c0,0,0,0,0,0v0.5l-2.4,8.4c-0.2,0.8-1,1.4-1.8,1.3h-42.6
		l7.1-24.3l-8,2.4l1.8-5.6l8-2.4l10-34.1c0.2-0.8,1-1.4,1.8-1.3h10.8c0.8,0,1.4,0.6,1.5,1.4c0,0,0,0,0,0v0.5l-8.5,28.8l8-2.4
		l-1.7,5.8L-208.2,158.2z"/>
	<circle cx="-103" cy="156.5" r="50"/>
	<circle class="st8" cx="-103" cy="50" r="50"/>
	<g id="Layer_x0020_1_1_">
		<g id="_1421394342400">
			<g>
				<polygon class="st9" points="-103,10.3 -103.5,12.1 -103.5,64.6 -103,65.1 -78.7,50.7 				"/>
				<polygon class="st10" points="-103,10.3 -127.4,50.7 -103,65.1 -103,39.7 				"/>
				<polygon class="st11" points="-103,69.7 -103.3,70.1 -103.3,88.8 -103,89.7 -78.6,55.4 				"/>
				<polygon class="st10" points="-103,89.7 -103,69.7 -127.4,55.4 				"/>
				<polygon class="st12" points="-103,65.1 -78.7,50.7 -103,39.7 				"/>
				<polygon class="st13" points="-127.4,50.7 -103,65.1 -103,39.7 				"/>
			</g>
		</g>
	</g>
	<text transform="matrix(1 0 0 1 -136.2285 190.959)" class="st5" style="font-family:'MyriadPro-Regular'; font-size:98.166px;">©</text>
</g>
<g id="emzl-style">
	<rect y="100" class="st1" width="100" height="100"/>
	<rect x="100" y="100" class="st2" width="100" height="100"/>
	<rect x="100" width="100" height="100"/>
	<rect class="st0" width="100" height="100"/>
	<g>
		<path d="M67.8,49.6H37.9v26.1h34.4v4.6H32.5v-64h39.6v4.6H37.9v24.2h29.9V49.6z"/>
	</g>
	<g>
		<path d="M33.6,178.5h39.5v4.6H27v-4.1l38-55.3H28.2V119h43.5v3.8L33.6,178.5z"/>
	</g>
	<g>
		<path d="M139.8,178.5h31.6v4.6h-37v-64h5.4V178.5z"/>
	</g>
	<g>
		<path class="st5" d="M126.3,16.3l23.6,56.5l23.7-56.5h7.2v64h-5.4V52.4l0.4-28.6L152,80.3h-4.2l-23.7-56.2l0.4,28.2v28h-5.4v-64
			H126.3z"/>
	</g>
</g>
</svg>
