<?xml version="1.0" encoding="utf-8"?>
<!-- Generator: Adobe Illustrator 22.0.1, SVG Export Plug-In . SVG Version: 6.00 Build 0)  -->
<svg version="1.1" xmlns="http://www.w3.org/2000/svg" xmlns:xlink="http://www.w3.org/1999/xlink" x="0px" y="0px"
	 viewBox="0 0 100 100" style="enable-background:new 0 0 100 100;" xml:space="preserve">
<style type="text/css">
	.st0{fill:#FFC107;}
	.st1{fill:#44D7B6;}
	.st2{fill:#E83E8C;}
	.st3{fill:#EBA63F;}
	.st4{display:none;fill:#F7931A;}
	.st5{fill:#FFFFFF;}
	.st6{display:none;fill:#3CBCC3;}
	.st7{fill:#3CBCC3;}
	.st8{fill:#438945;}
	.st9{fill:#808080;}
	.st10{fill:#E2E2E2;}
	.st11{fill:#92928F;}
	.st12{fill:#3A3A3A;}
	.st13{fill:#8F8F8F;}
</style>
<g id="emzl">
	<circle class="st0" cx="-574" cy="-50" r="50"/>
	<circle class="st1" cx="-574" cy="56.5" r="50"/>
	<circle class="st2" cx="-468" cy="56.5" r="50"/>
	<circle cx="-468" cy="-50" r="50"/>
	<text transform="matrix(1 0 0 1 -599.5979 -16.9665)" style="font-family:'Roboto-Light'; font-size:90px;">E</text>
	<text transform="matrix(1 0 0 1 -599.5979 89.5335)" style="font-family:'Roboto-Light'; font-size:90px;">Z</text>
	<text transform="matrix(1 0 0 1 -491.7085 89.5335)" style="font-family:'Roboto-Light'; font-size:90px;">L</text>
	<text transform="matrix(1 0 0 1 -506.9358 -16.9665)" class="st5" style="font-family:'Roboto-Light'; font-size:90px;">M</text>
</g>
<g id="cryptos">
	<circle class="st3" cx="-309" cy="-50" r="50"/>
	<g id="Layer_x0020_1">
		<g id="_1421344023328">
			<path class="st4" d="M-260.5-37.9c-6.7,26.8-33.8,43.1-60.6,36.4c-26.8-6.7-43.1-33.8-36.4-60.6c6.7-26.8,33.8-43.1,60.6-36.4
				C-270.1-91.8-253.8-64.7-260.5-37.9L-260.5-37.9L-260.5-37.9z"/>
			<path class="st5" d="M-287-57.1c1-6.7-4.1-10.2-11-12.6l2.2-9l-5.5-1.4l-2.2,8.8c-1.4-0.4-2.9-0.7-4.4-1l2.2-8.8l-5.5-1.4l-2.2,9
				c-1.2-0.3-2.4-0.5-3.5-0.8l0,0l-7.6-1.9l-1.5,5.9c0,0,4.1,0.9,4,1c2.2,0.6,2.6,2,2.6,3.2l-2.6,10.3c0.2,0,0.4,0.1,0.6,0.2
				c-0.2,0-0.4-0.1-0.6-0.1l-3.6,14.4c-0.3,0.7-1,1.7-2.5,1.3c0.1,0.1-4-1-4-1l-2.7,6.3l7.1,1.8c1.3,0.3,2.6,0.7,3.9,1l-2.3,9.1
				l5.5,1.4l2.2-9c1.5,0.4,3,0.8,4.4,1.1l-2.2,9l5.5,1.4l2.3-9.1c9.4,1.8,16.4,1.1,19.4-7.4c2.4-6.8-0.1-10.7-5-13.3
				C-290.4-49.9-287.7-52.3-287-57.1L-287-57.1L-287-57.1z M-299.5-39.5c-1.7,6.8-13.2,3.1-16.9,2.2l3-12.1
				C-309.6-48.5-297.7-46.7-299.5-39.5L-299.5-39.5z M-297.8-57.2c-1.5,6.2-11.1,3-14.2,2.3l2.7-11
				C-306.2-65.1-296.2-63.7-297.8-57.2L-297.8-57.2z"/>
		</g>
	</g>
	<circle class="st6" cx="-309" cy="56.5" r="50"/>
	<circle class="st5" cx="-310" cy="57.5" r="41.3"/>
	<path class="st7" d="M-309,6.5c-27.6,0-50,22.4-50,50s22.4,50,50,50c27.6,0,50-22.4,50-50l0,0l0,0c0.1-27.5-22.2-49.9-49.7-50
		c0,0,0,0,0,0H-309z M-308.2,58.2l-5.2,17.6h27.8c0.8,0,1.4,0.6,1.5,1.4c0,0,0,0,0,0v0.5l-2.4,8.4c-0.2,0.8-1,1.4-1.8,1.3h-42.6
		l7.1-24.3l-8,2.4l1.8-5.6l8-2.4l10-34.1c0.2-0.8,1-1.4,1.8-1.3h10.8c0.8,0,1.4,0.6,1.5,1.4c0,0,0,0,0,0v0.5l-8.5,28.8l8-2.4
		l-1.7,5.8L-308.2,58.2z"/>
	<circle cx="-203" cy="56.5" r="50"/>
	<circle class="st8" cx="-203" cy="-50" r="50"/>
	<g id="Layer_x0020_1_1_">
		<g id="_1421394342400">
			<g>
				<polygon class="st9" points="-203,-89.7 -203.5,-87.9 -203.5,-35.4 -203,-34.9 -178.7,-49.3 				"/>
				<polygon class="st10" points="-203,-89.7 -227.4,-49.3 -203,-34.9 -203,-60.3 				"/>
				<polygon class="st11" points="-203,-30.3 -203.3,-29.9 -203.3,-11.2 -203,-10.3 -178.6,-44.6 				"/>
				<polygon class="st10" points="-203,-10.3 -203,-30.3 -227.4,-44.6 				"/>
				<polygon class="st12" points="-203,-34.9 -178.7,-49.3 -203,-60.3 				"/>
				<polygon class="st13" points="-227.4,-49.3 -203,-34.9 -203,-60.3 				"/>
			</g>
		</g>
	</g>
	<text transform="matrix(1 0 0 1 -236.2285 90.959)" class="st5" style="font-family:'MyriadPro-Regular'; font-size:98.166px;">©</text>
</g>
<g id="emzl-style">
	<rect x="-100" class="st1" width="100" height="100"/>
	<rect class="st2" width="100" height="100"/>
	<rect y="-100" width="100" height="100"/>
	<rect x="-100" y="-100" class="st0" width="100" height="100"/>
	<g>
		<path d="M-32.2-50.4h-29.9v26.1h34.4v4.6h-39.8v-64h39.6v4.6h-34.2v24.2h29.9V-50.4z"/>
	</g>
	<g>
		<path d="M-66.4,78.5h39.5V83H-73v-4.1l38-55.3h-36.8V19h43.5v3.8L-66.4,78.5z"/>
	</g>
	<g>
		<path d="M39.8,78.5h31.6V83h-37V19h5.4V78.5z"/>
	</g>
	<g>
		<path class="st5" d="M26.3-83.7l23.6,56.5l23.7-56.5h7.2v64h-5.4v-27.9l0.4-28.6L52-19.7h-4.2L24.1-75.9l0.4,28.2v28h-5.4v-64
			H26.3z"/>
	</g>
</g>
</svg>
