<?xml version="1.0" standalone="no"?>
<!DOCTYPE svg PUBLIC "-//W3C//DTD SVG 20010904//EN"
 "http://www.w3.org/TR/2001/REC-SVG-20010904/DTD/svg10.dtd">
<svg version="1.0" xmlns="http://www.w3.org/2000/svg"
 width="1884.000000pt" height="1909.000000pt" viewBox="0 0 1884.000000 1909.000000"
 preserveAspectRatio="xMidYMid meet">

<g transform="translate(0.000000,1909.000000) scale(0.100000,-0.100000)"
fill="#000000" stroke="none">
<path d="M4370 19074 c-518 -46 -964 -148 -1410 -325 -173 -68 -508 -235 -677
-337 -970 -586 -1704 -1510 -2051 -2582 -371 -1146 -285 -2413 238 -3495 551
-1143 1550 -2022 2756 -2424 390 -130 906 -226 1254 -232 l75 -2 -95 -8 c-403
-36 -601 -66 -878 -135 -998 -245 -1894 -816 -2538 -1616 -849 -1054 -1201
-2403 -978 -3743 73 -439 227 -912 429 -1315 234 -468 503 -839 884 -1221 402
-402 772 -668 1265 -910 492 -242 1018 -392 1596 -456 193 -21 693 -24 885 -5
979 96 1822 443 2585 1062 173 140 524 497 674 685 353 442 615 923 791 1450
228 682 298 1411 204 2119 -206 1552 -1180 2909 -2584 3600 -574 283 -1148
435 -1820 483 l-110 7 130 7 c1359 74 2642 764 3477 1869 977 1294 1214 3024
623 4540 -376 963 -1069 1785 -1958 2322 -169 102 -504 269 -677 337 -385 153
-788 254 -1220 307 -129 16 -748 28 -870 18z m1940 -11636 l0 -233 -1340
-2244 c-737 -1234 -1340 -2248 -1340 -2252 0 -5 604 -9 1370 -9 l1370 0 -2
-262 -3 -263 -1695 0 -1695 0 -3 260 -2 260 1341 2245 c737 1235 1343 2251
1346 2258 4 9 -262 12 -1311 12 l-1316 0 0 223 c0 123 3 227 7 230 3 4 741 7
1640 7 l1633 0 0 -232z"/>
<path d="M11332 14573 l3 -2748 262 -3 263 -2 2 2422 3 2423 1021 -2420 1021
-2420 235 -3 236 -2 143 337 c80 186 542 1274 1029 2418 l885 2081 3 -2418 2
-2418 290 0 290 0 0 2750 0 2750 -444 0 -444 0 -56 -132 c-1352 -3182 -1931
-4537 -1936 -4531 -4 5 -452 1055 -996 2336 l-989 2327 -412 0 -413 0 2 -2747z"/>
<path d="M12820 4920 l0 -2750 1405 0 1405 0 0 265 0 265 -1140 0 -1140 0 0
2485 0 2485 -265 0 -265 0 0 -2750z"/>
</g>
</svg>
