<?xml version="1.0" standalone="no"?>
<!DOCTYPE svg PUBLIC "-//W3C//DTD SVG 20010904//EN"
 "http://www.w3.org/TR/2001/REC-SVG-20010904/DTD/svg10.dtd">
<svg version="1.0" xmlns="http://www.w3.org/2000/svg"
 width="1884.000000pt" height="1884.000000pt" viewBox="0 0 1884.000000 1884.000000"
 preserveAspectRatio="xMidYMid meet">

<g transform="translate(0.000000,1884.000000) scale(0.100000,-0.100000)"
fill="#000000" stroke="none">
<path d="M13810 18829 c-1158 -84 -2208 -564 -3020 -1379 -799 -801 -1270
-1830 -1361 -2973 -15 -197 -7 -696 16 -877 181 -1468 976 -2719 2215 -3484
658 -406 1383 -634 2205 -692 l110 -8 -135 -8 c-1132 -62 -2226 -554 -3040
-1368 -1037 -1038 -1526 -2476 -1339 -3940 155 -1215 781 -2314 1764 -3094
141 -112 443 -314 610 -407 583 -326 1229 -520 1920 -579 154 -13 595 -13 750
0 1126 95 2157 572 2950 1365 760 761 1224 1727 1351 2815 21 184 30 645 15
840 -39 525 -161 1038 -356 1500 -569 1348 -1755 2372 -3161 2728 -326 83
-703 140 -944 143 -116 1 -93 6 90 19 1006 71 1940 449 2715 1099 50 41 159
143 244 226 549 536 932 1140 1174 1852 365 1070 337 2207 -80 3263 -497 1259
-1549 2266 -2824 2705 -370 127 -689 198 -1079 240 -176 19 -618 27 -790 14z
m-1651 -1777 c6 -10 447 -1047 981 -2303 535 -1256 978 -2300 987 -2319 l15
-35 17 35 c10 19 458 1071 996 2338 l979 2302 443 0 443 0 -2 -2747 -3 -2748
-285 0 -285 0 -5 2418 -5 2417 -1019 -2397 c-560 -1319 -1025 -2408 -1033
-2421 -14 -22 -14 -22 -244 -20 l-230 3 -1018 2413 c-560 1327 -1021 2415
-1025 2419 -3 3 -6 -1083 -6 -2415 l0 -2422 -262 2 -263 3 -3 2735 c-1 1504 0
2741 3 2748 3 9 95 12 409 12 383 0 406 -1 415 -18z"/>
<path d="M3090 14330 l0 -2750 1525 0 1525 0 0 265 0 265 -1260 0 -1260 0 0
995 0 995 1230 0 1230 0 0 260 0 260 -1230 0 -1230 0 0 970 0 970 1260 0 1260
0 0 260 0 260 -1525 0 -1525 0 0 -2750z"/>
<path d="M3030 7190 l0 -230 1315 0 c723 0 1315 -2 1315 -4 0 -2 -605 -1017
-1345 -2256 l-1345 -2253 2 -261 3 -261 1698 -3 1697 -2 0 265 0 265 -1371 0
c-1237 0 -1371 2 -1365 16 3 8 607 1021 1341 2251 l1335 2237 0 233 0 233
-1640 0 -1640 0 0 -230z"/>
</g>
</svg>
