<?xml version="1.0" encoding="utf-8"?>
<!-- Generator: Adobe Illustrator 22.0.1, SVG Export Plug-In . SVG Version: 6.00 Build 0)  -->
<svg version="1.1" id="Layer_1" xmlns="http://www.w3.org/2000/svg" xmlns:xlink="http://www.w3.org/1999/xlink" x="0px" y="0px"
	 viewBox="0 0 100 100" style="enable-background:new 0 0 100 100;" xml:space="preserve">
<style type="text/css">
	.st0{fill:#FFC107;}
	.st1{fill:#44D7B6;}
	.st2{fill:#E83E8C;}
	.st3{fill:#FFFFFF;}
</style>
<circle class="st0" cx="-56" cy="-56.5" r="50"/>
<circle class="st1" cx="-56" cy="50" r="50"/>
<circle class="st2" cx="50" cy="50" r="50"/>
<circle cx="50" cy="-56.5" r="50"/>
<g>
	<path d="M-38.2-54.1h-29.9V-28h34.4v4.6h-39.8v-64h39.6v4.6h-34.2v24.2h29.9V-54.1z"/>
</g>
<g>
	<path d="M-72.4,78.5h39.5V83H-79v-4.1l38-55.3h-36.8V19h43.5v3.8L-72.4,78.5z"/>
</g>
<g>
	<path d="M39.8,78.5h31.6V83h-37V19h5.4V78.5z"/>
</g>
<g>
	<path class="st3" d="M26.3-87.5L49.9-31l23.7-56.5h7.2v64h-5.4v-27.9l0.4-28.6L52-23.5h-4.2L24.1-79.7l0.4,28.2v28h-5.4v-64H26.3z"
		/>
</g>
</svg>
