<?xml version="1.0" standalone="no"?>
<!DOCTYPE svg PUBLIC "-//W3C//DTD SVG 20010904//EN"
 "http://www.w3.org/TR/2001/REC-SVG-20010904/DTD/svg10.dtd">
<svg version="1.0" xmlns="http://www.w3.org/2000/svg"
 width="1884.000000pt" height="1909.000000pt" viewBox="0 0 1884.000000 1909.000000"
 preserveAspectRatio="xMidYMid meet">

<g transform="translate(0.000000,1909.000000) scale(0.100000,-0.100000)"
fill="#000000" stroke="none">
<path d="M3090 14580 l0 -2750 1525 0 1525 0 0 265 0 265 -1260 0 -1260 0 0
995 0 995 1230 0 1230 0 0 260 0 260 -1230 0 -1230 0 0 970 0 970 1260 0 1260
0 0 260 0 260 -1525 0 -1525 0 0 -2750z"/>
<path d="M11332 14573 l3 -2748 263 -3 262 -2 0 2422 c0 1332 2 2419 5 2416 3
-3 464 -1091 1024 -2419 l1019 -2414 235 -3 234 -2 114 267 c63 148 526 1236
1029 2419 l915 2151 3 -2419 2 -2418 290 0 290 0 0 2750 0 2750 -444 0 -443 0
-25 -57 c-14 -32 -461 -1083 -993 -2336 -533 -1252 -972 -2274 -975 -2270 -4
5 -452 1055 -996 2335 l-989 2328 -413 0 -412 0 2 -2747z"/>
<path d="M4425 9660 c-1145 -75 -2182 -534 -2993 -1325 -1167 -1137 -1656
-2742 -1326 -4350 257 -1255 1061 -2383 2177 -3057 169 -102 504 -269 677
-337 389 -154 788 -254 1230 -308 208 -26 832 -26 1040 0 440 54 845 155 1230
308 175 69 509 236 677 337 889 537 1582 1359 1958 2322 174 445 270 873 310
1380 l13 165 1 -165 c11 -1430 717 -2810 1886 -3690 1121 -843 2579 -1139
3950 -800 2320 572 3845 2793 3544 5163 -66 522 -227 1054 -458 1516 -318 634
-803 1217 -1372 1648 -1136 862 -2605 1160 -3994 812 -749 -188 -1452 -567
-2025 -1090 -842 -771 -1373 -1810 -1504 -2949 -9 -74 -16 -157 -17 -185 -2
-90 -17 -10 -18 96 -1 140 -28 400 -61 596 -225 1337 -1013 2505 -2177 3226
-177 110 -514 280 -704 356 -423 169 -879 278 -1339 321 -161 14 -550 20 -705
10z m8923 -4477 l2 -2483 1140 0 1140 0 -2 -262 -3 -263 -1402 -3 -1403 -2 0
2750 0 2750 263 -2 262 -3 3 -2482z m-3931 -335 c-3 -8 -6 -5 -6 6 -1 11 2 17
5 13 3 -3 4 -12 1 -19z"/>
</g>
</svg>
